<?xml version="1.0" encoding="UTF-8"?>
<svg width="20px" height="20px" viewBox="0 0 20 20" version="1.1" xmlns="http://www.w3.org/2000/svg" xmlns:xlink="http://www.w3.org/1999/xlink">
    <!-- Generator: Sketch 49.3 (51167) - http://www.bohemiancoding.com/sketch -->
    <title>Iconos/Basicos/Cel</title>
    <desc>Created with Sketch.</desc>
    <defs>
        <path d="M14.1094,18.5039 L6.3904,18.5039 C5.8994,18.5039 5.5004,18.1059 5.5004,17.6159 L5.5004,15.6889 L15.0004,15.6889 L15.0004,17.6159 C15.0004,18.1059 14.6004,18.5039 14.1094,18.5039 Z M5.5004,14.6909 L15.0004,14.6909 L15.0004,3.7739 L5.5004,3.7739 L5.5004,14.6909 Z M6.3904,1.4959 L14.1094,1.4959 C14.6004,1.4959 15.0004,1.8949 15.0004,2.3839 L15.0004,2.7759 L5.5004,2.7759 L5.5004,2.3839 C5.5004,1.8949 5.8994,1.4959 6.3904,1.4959 Z M14.1094,-0.0001 L6.3904,-0.0001 C5.0724,-0.0001 4.0004,1.0689 4.0004,2.3839 L4.0004,17.6159 C4.0004,18.9309 5.0724,19.9999 6.3904,19.9999 L14.1094,19.9999 C15.4274,19.9999 16.5004,18.9309 16.5004,17.6159 L16.5004,2.3839 C16.5004,1.0689 15.4274,-0.0001 14.1094,-0.0001 Z M11.1777,17.1167 C11.1777,17.6297 10.7627,18.0447 10.2497,18.0447 C9.7377,18.0447 9.3227,17.6297 9.3227,17.1167 C9.3227,16.6047 9.7377,16.1887 10.2497,16.1887 C10.7627,16.1887 11.1777,16.6047 11.1777,17.1167" id="path-1"></path>
    </defs>
    <g id="Iconos/Basicos/Cel" stroke="none" stroke-width="1" fill="none" fill-rule="evenodd">
        <mask id="mask-2" fill="white">
            <use xlink:href="#path-1"></use>
        </mask>
        <use id="Mask" fill="#535353" xlink:href="#path-1"></use>
        <g id="Color/Gris/2-Dark" mask="url(#mask-2)" fill="#535353">
            <g transform="translate(10.000000, 10.000000) rotate(-180.000000) translate(-10.000000, -10.000000) " id="Rectangle">
                <rect x="0" y="0" width="20" height="20"></rect>
            </g>
        </g>
    </g>
</svg>