<?xml version="1.0" encoding="UTF-8"?>
<svg width="20px" height="20px" viewBox="0 0 20 20" version="1.1" xmlns="http://www.w3.org/2000/svg" xmlns:xlink="http://www.w3.org/1999/xlink">
    <!-- Generator: Sketch 49.3 (51167) - http://www.bohemiancoding.com/sketch -->
    <title>Iconos/Basicos/Cerrar</title>
    <desc>Created with Sketch.</desc>
    <defs>
        <path d="M11.2947435,9.99985 L19.7313004,1.56308223 C20.0895665,1.20582496 20.0895665,0.625663588 19.7313004,0.268406321 C19.3730343,-0.0898687735 18.7939052,-0.0898687735 18.4366569,0.268406321 L10.0001,8.70517409 L1.56354315,0.268406321 C1.20527701,-0.0898687735 0.626147939,-0.0898687735 0.268899603,0.268406321 C-0.0893665344,0.625663588 -0.0893665344,1.20582496 0.268899603,1.56308223 L8.70443866,9.99985 L0.268899603,18.4366178 C-0.0893665344,18.793875 -0.0893665344,19.3740364 0.268899603,19.7312937 C0.44701487,19.9104312 0.681109221,20 0.916221374,20 C1.15031573,20 1.38441008,19.9104312 1.56354315,19.7312937 L10.0001,11.2945259 L18.4366569,19.7312937 C18.6147721,19.9104312 18.8488665,20 19.0839786,20 C19.318073,20 19.5521673,19.9104312 19.7313004,19.7312937 C20.0895665,19.3740364 20.0895665,18.793875 19.7313004,18.4366178 L11.2947435,9.99985 Z" id="path-1"></path>
    </defs>
    <g id="Iconos/Basicos/Cerrar" stroke="none" stroke-width="1" fill="none" fill-rule="evenodd">
        <g id="Color/Gris/2-Dark">
            <mask id="mask-2" fill="white">
                <use xlink:href="#path-1"></use>
            </mask>
            <use id="Mask" fill="#535353" xlink:href="#path-1"></use>
            <g mask="url(#mask-2)" fill="#535353" id="Rectangle">
                <g transform="translate(-1.000000, -1.000000)">
                    <rect x="0" y="0" width="22" height="22"></rect>
                </g>
            </g>
        </g>
    </g>
</svg>