<?xml version="1.0" encoding="UTF-8"?>
<svg width="20px" height="20px" viewBox="0 0 20 20" version="1.1" xmlns="http://www.w3.org/2000/svg" xmlns:xlink="http://www.w3.org/1999/xlink">
    <!-- Generator: Sketch 49.3 (51167) - http://www.bohemiancoding.com/sketch -->
    <title>Iconos/Basicos/Eliminar</title>
    <desc>Created with Sketch.</desc>
    <defs>
        <path d="M9.9805,8.9697 C10.3895,8.9697 10.7215,9.3037 10.7215,9.7167 L10.7215,16.3937 C10.7215,16.8057 10.3895,17.1407 9.9805,17.1407 C9.5725,17.1407 9.2405,16.8057 9.2405,16.3937 L9.2405,9.7167 C9.2405,9.3037 9.5725,8.9697 9.9805,8.9697 Z M13.4043,8.9697 C13.8133,8.9697 14.1453,9.3037 14.1453,9.7167 L14.1453,16.3937 C14.1453,16.8057 13.8133,17.1407 13.4043,17.1407 C12.9953,17.1407 12.6643,16.8057 12.6643,16.3937 L12.6643,9.7167 C12.6643,9.3037 12.9953,8.9697 13.4043,8.9697 Z M6.5957,8.9697 C7.0047,8.9697 7.3357,9.3037 7.3357,9.7167 L7.3357,16.3937 C7.3357,16.8057 7.0047,17.1407 6.5957,17.1407 C6.1867,17.1407 5.8547,16.8057 5.8547,16.3937 L5.8547,9.7167 C5.8547,9.3037 6.1867,8.9697 6.5957,8.9697 Z M15.3994,18.5063 L4.6004,18.5063 C4.5414,18.5063 4.5094,18.4813 4.5134,18.4643 L3.7664,7.5943 L16.2344,7.5943 L15.4964,18.4743 C15.4914,18.4813 15.4604,18.5063 15.3994,18.5063 Z M2.5674,3.3753 L17.4324,3.3753 C17.4864,3.3753 17.5154,3.3913 17.5184,3.3773 L17.5294,6.0683 C17.5244,6.0753 17.4924,6.1003 17.4324,6.1003 L2.5674,6.1003 C2.5314,6.1003 2.5064,6.0913 2.4934,6.0913 C2.4864,6.0913 2.4824,6.0933 2.4814,6.0983 L2.4704,3.4063 C2.4754,3.4003 2.5074,3.3753 2.5674,3.3753 Z M8.1624,1.8813 L11.8384,1.8813 L11.8384,1.4933 L8.1624,1.4933 L8.1624,1.8813 Z M17.4324,1.8813 L13.3194,1.8813 L13.3194,1.1453 C13.3194,0.5033 12.8804,0.0003 12.3204,0.0003 L7.6794,0.0003 C7.1194,0.0003 6.6804,0.5033 6.6804,1.1453 L6.6804,1.8813 L2.5674,1.8813 C1.7034,1.8813 1.0004,2.5473 1.0004,3.3653 L1.0004,6.1093 C1.0004,6.8353 1.5524,7.4383 2.2804,7.5663 L3.0344,18.5163 C3.0344,19.3343 3.7374,20.0003 4.6004,20.0003 L15.3994,20.0003 C16.2634,20.0003 16.9664,19.3343 16.9644,18.5673 L17.7204,7.5663 C18.4474,7.4383 19.0004,6.8343 19.0004,6.1093 L19.0004,3.3653 C19.0004,2.5473 18.2964,1.8813 17.4324,1.8813 Z" id="path-1"></path>
    </defs>
    <g id="Iconos/Basicos/Eliminar" stroke="none" stroke-width="1" fill="none" fill-rule="evenodd">
        <mask id="mask-2" fill="white">
            <use xlink:href="#path-1"></use>
        </mask>
        <use id="Mask" fill="#535353" xlink:href="#path-1"></use>
        <g id="Color/Gris/2-Dark" mask="url(#mask-2)" fill="#535353">
            <g transform="translate(-1.000000, -1.000000)" id="Rectangle">
                <rect x="0" y="0" width="22" height="22"></rect>
            </g>
        </g>
    </g>
</svg>