<?xml version="1.0" encoding="UTF-8"?>
<svg width="20px" height="20px" viewBox="0 0 20 20" version="1.1" xmlns="http://www.w3.org/2000/svg" xmlns:xlink="http://www.w3.org/1999/xlink">
    <!-- Generator: Sketch 49.3 (51167) - http://www.bohemiancoding.com/sketch -->
    <title>Iconos/Basicos/Empresa</title>
    <desc>Created with Sketch.</desc>
    <defs>
        <path d="M16.2808,18.5039 L11.4958,18.5039 L11.4958,15.2489 C11.4958,14.9209 11.2298,14.6559 10.9028,14.6559 L9.0878,14.6559 C8.7598,14.6559 8.4948,14.9209 8.4948,15.2489 L8.4948,18.5039 L3.7088,18.5039 L3.7088,1.4959 L16.2808,1.4959 L16.2808,18.5039 Z M19.2458,18.5039 L17.7898,18.5039 L17.7898,0.7479 C17.7898,0.3349 17.4518,-0.0001 17.0358,-0.0001 L2.9538,-0.0001 C2.5378,-0.0001 2.1998,0.3349 2.1998,0.7479 L2.1998,18.5039 L0.7548,18.5039 C0.3378,18.5039 -0.0002,18.8389 -0.0002,19.2519 C-0.0002,19.6649 0.3378,19.9999 0.7548,19.9999 L19.2458,19.9999 C19.6618,19.9999 19.9998,19.6649 19.9998,19.2519 C19.9998,18.8389 19.6618,18.5039 19.2458,18.5039 Z M5.1626,4.5918 L6.1356,4.5918 C6.4116,4.5918 6.6356,4.3678 6.6356,4.0918 L6.6356,3.1188 C6.6356,2.8428 6.4116,2.6188 6.1356,2.6188 L5.1626,2.6188 C4.8866,2.6188 4.6626,2.8428 4.6626,3.1188 L4.6626,4.0918 C4.6626,4.3678 4.8866,4.5918 5.1626,4.5918 M5.1626,7.479 L6.1356,7.479 C6.4116,7.479 6.6356,7.255 6.6356,6.979 L6.6356,6.006 C6.6356,5.73 6.4116,5.506 6.1356,5.506 L5.1626,5.506 C4.8866,5.506 4.6626,5.73 4.6626,6.006 L4.6626,6.979 C4.6626,7.255 4.8866,7.479 5.1626,7.479 M5.1626,10.3657 L6.1356,10.3657 C6.4116,10.3657 6.6356,10.1417 6.6356,9.8657 L6.6356,8.8927 C6.6356,8.6167 6.4116,8.3927 6.1356,8.3927 L5.1626,8.3927 C4.8866,8.3927 4.6626,8.6167 4.6626,8.8927 L4.6626,9.8657 C4.6626,10.1417 4.8866,10.3657 5.1626,10.3657 M8.0503,4.5918 L9.0233,4.5918 C9.2983,4.5918 9.5233,4.3678 9.5233,4.0918 L9.5233,3.1188 C9.5233,2.8428 9.2983,2.6188 9.0233,2.6188 L8.0503,2.6188 C7.7743,2.6188 7.5503,2.8428 7.5503,3.1188 L7.5503,4.0918 C7.5503,4.3678 7.7743,4.5918 8.0503,4.5918 M8.0503,7.479 L9.0233,7.479 C9.2983,7.479 9.5233,7.255 9.5233,6.979 L9.5233,6.006 C9.5233,5.73 9.2983,5.506 9.0233,5.506 L8.0503,5.506 C7.7743,5.506 7.5503,5.73 7.5503,6.006 L7.5503,6.979 C7.5503,7.255 7.7743,7.479 8.0503,7.479 M8.0503,10.3657 L9.0233,10.3657 C9.2983,10.3657 9.5233,10.1417 9.5233,9.8657 L9.5233,8.8927 C9.5233,8.6167 9.2983,8.3927 9.0233,8.3927 L8.0503,8.3927 C7.7743,8.3927 7.5503,8.6167 7.5503,8.8927 L7.5503,9.8657 C7.5503,10.1417 7.7743,10.3657 8.0503,10.3657 M10.9673,4.5918 L11.9403,4.5918 C12.2163,4.5918 12.4403,4.3678 12.4403,4.0918 L12.4403,3.1188 C12.4403,2.8428 12.2163,2.6188 11.9403,2.6188 L10.9673,2.6188 C10.6913,2.6188 10.4673,2.8428 10.4673,3.1188 L10.4673,4.0918 C10.4673,4.3678 10.6913,4.5918 10.9673,4.5918 M10.9673,7.479 L11.9403,7.479 C12.2163,7.479 12.4403,7.255 12.4403,6.979 L12.4403,6.006 C12.4403,5.73 12.2163,5.506 11.9403,5.506 L10.9673,5.506 C10.6913,5.506 10.4673,5.73 10.4673,6.006 L10.4673,6.979 C10.4673,7.255 10.6913,7.479 10.9673,7.479 M10.9673,10.3657 L11.9403,10.3657 C12.2163,10.3657 12.4403,10.1417 12.4403,9.8657 L12.4403,8.8927 C12.4403,8.6167 12.2163,8.3927 11.9403,8.3927 L10.9673,8.3927 C10.6913,8.3927 10.4673,8.6167 10.4673,8.8927 L10.4673,9.8657 C10.4673,10.1417 10.6913,10.3657 10.9673,10.3657 M13.854,4.5918 L14.828,4.5918 C15.103,4.5918 15.328,4.3678 15.328,4.0918 L15.328,3.1188 C15.328,2.8428 15.103,2.6188 14.828,2.6188 L13.854,2.6188 C13.579,2.6188 13.354,2.8428 13.354,3.1188 L13.354,4.0918 C13.354,4.3678 13.579,4.5918 13.854,4.5918 M13.854,7.479 L14.828,7.479 C15.103,7.479 15.328,7.255 15.328,6.979 L15.328,6.006 C15.328,5.73 15.103,5.506 14.828,5.506 L13.854,5.506 C13.579,5.506 13.354,5.73 13.354,6.006 L13.354,6.979 C13.354,7.255 13.579,7.479 13.854,7.479 M13.854,10.3657 L14.828,10.3657 C15.103,10.3657 15.328,10.1417 15.328,9.8657 L15.328,8.8927 C15.328,8.6167 15.103,8.3927 14.828,8.3927 L13.854,8.3927 C13.579,8.3927 13.354,8.6167 13.354,8.8927 L13.354,9.8657 C13.354,10.1417 13.579,10.3657 13.854,10.3657 M5.1626,13.3384 L6.1356,13.3384 C6.4116,13.3384 6.6356,13.1144 6.6356,12.8384 L6.6356,11.8654 C6.6356,11.5894 6.4116,11.3654 6.1356,11.3654 L5.1626,11.3654 C4.8866,11.3654 4.6626,11.5894 4.6626,11.8654 L4.6626,12.8384 C4.6626,13.1144 4.8866,13.3384 5.1626,13.3384 M8.0503,13.3384 L9.0233,13.3384 C9.2983,13.3384 9.5233,13.1144 9.5233,12.8384 L9.5233,11.8654 C9.5233,11.5894 9.2983,11.3654 9.0233,11.3654 L8.0503,11.3654 C7.7743,11.3654 7.5503,11.5894 7.5503,11.8654 L7.5503,12.8384 C7.5503,13.1144 7.7743,13.3384 8.0503,13.3384 M10.9673,13.3384 L11.9403,13.3384 C12.2163,13.3384 12.4403,13.1144 12.4403,12.8384 L12.4403,11.8654 C12.4403,11.5894 12.2163,11.3654 11.9403,11.3654 L10.9673,11.3654 C10.6913,11.3654 10.4673,11.5894 10.4673,11.8654 L10.4673,12.8384 C10.4673,13.1144 10.6913,13.3384 10.9673,13.3384 M13.854,13.3384 L14.828,13.3384 C15.103,13.3384 15.328,13.1144 15.328,12.8384 L15.328,11.8654 C15.328,11.5894 15.103,11.3654 14.828,11.3654 L13.854,11.3654 C13.579,11.3654 13.354,11.5894 13.354,11.8654 L13.354,12.8384 C13.354,13.1144 13.579,13.3384 13.854,13.3384" id="path-1"></path>
    </defs>
    <g id="Iconos/Basicos/Empresa" stroke="none" stroke-width="1" fill="none" fill-rule="evenodd">
        <mask id="mask-2" fill="white">
            <use xlink:href="#path-1"></use>
        </mask>
        <use id="Mask" fill="#535353" xlink:href="#path-1"></use>
        <g id="Color/Gris/2-Dark" mask="url(#mask-2)" fill="#535353">
            <g transform="translate(10.000000, 10.000000) rotate(-180.000000) translate(-10.000000, -10.000000) " id="Rectangle">
                <rect x="0" y="0" width="20" height="20"></rect>
            </g>
        </g>
    </g>
</svg>