<?xml version="1.0" encoding="UTF-8"?>
<svg width="20px" height="20px" viewBox="0 0 20 20" version="1.1" xmlns="http://www.w3.org/2000/svg" xmlns:xlink="http://www.w3.org/1999/xlink">
    <!-- Generator: Sketch 49.3 (51167) - http://www.bohemiancoding.com/sketch -->
    <title>Iconos/Basicos/Empresa Copy</title>
    <desc>Created with Sketch.</desc>
    <defs>
        <path d="M18.9922,7 L5.7312,7 C5.1752,7 4.7232,6.552 4.7232,6 C4.7232,5.448 5.1752,5 5.7312,5 L18.9922,5 C19.5492,5 20.0002,5.448 20.0002,6 C20.0002,6.552 19.5492,7 18.9922,7 Z M18.9922,12 L5.7312,12 C5.1752,12 4.7232,11.552 4.7232,11 C4.7232,10.448 5.1752,10 5.7312,10 L18.9922,10 C19.5492,10 20.0002,10.448 20.0002,11 C20.0002,11.552 19.5492,12 18.9922,12 Z M18.9922,17 L5.7312,17 C5.1752,17 4.7232,16.552 4.7232,16 C4.7232,15.448 5.1752,15 5.7312,15 L18.9922,15 C19.5492,15 20.0002,15.448 20.0002,16 C20.0002,16.552 19.5492,17 18.9922,17 Z M18.9922,2 L5.7312,2 C5.1752,2 4.7232,1.552 4.7232,1 C4.7232,0.448 5.1752,0 5.7312,0 L18.9922,0 C19.5492,0 20.0002,0.448 20.0002,1 C20.0002,1.552 19.5492,2 18.9922,2 Z M1.5713,7 L1.0083,7 C0.4513,7 0.0003,6.552 0.0003,6 C0.0003,5.448 0.4513,5 1.0083,5 L1.5713,5 C2.1283,5 2.5793,5.448 2.5793,6 C2.5793,6.552 2.1283,7 1.5713,7 Z M1.5713,12 L1.0083,12 C0.4513,12 0.0003,11.552 0.0003,11 C0.0003,10.448 0.4513,10 1.0083,10 L1.5713,10 C2.1283,10 2.5793,10.448 2.5793,11 C2.5793,11.552 2.1283,12 1.5713,12 Z M1.5713,17 L1.0083,17 C0.4513,17 0.0003,16.552 0.0003,16 C0.0003,15.448 0.4513,15 1.0083,15 L1.5713,15 C2.1283,15 2.5793,15.448 2.5793,16 C2.5793,16.552 2.1283,17 1.5713,17 Z M1.5713,2 L1.0083,2 C0.4513,2 0.0003,1.552 0.0003,1 C0.0003,0.448 0.4513,0 1.0083,0 L1.5713,0 C2.1283,0 2.5793,0.448 2.5793,1 C2.5793,1.552 2.1283,2 1.5713,2 Z" id="path-1"></path>
    </defs>
    <g id="Iconos/Basicos/Empresa-Copy" stroke="none" stroke-width="1" fill="none" fill-rule="evenodd">
        <g id="Color" transform="translate(0.000000, 1.500000)">
            <mask id="mask-2" fill="white">
                <use xlink:href="#path-1"></use>
            </mask>
            <use id="Mask" fill="#535353" xlink:href="#path-1"></use>
            <g id="Color/Gris/2-Dark" mask="url(#mask-2)" fill="#535353">
                <g transform="translate(10.000000, 9.000000) rotate(-180.000000) translate(-10.000000, -9.000000) translate(0.000000, -1.000000)" id="Rectangle">
                    <rect x="0" y="0" width="20" height="20"></rect>
                </g>
            </g>
        </g>
        <g id="Page-1" transform="translate(0.000000, 1.000000)"></g>
    </g>
</svg>