<?xml version="1.0" encoding="UTF-8"?>
<svg width="20px" height="20px" viewBox="0 0 20 20" version="1.1" xmlns="http://www.w3.org/2000/svg" xmlns:xlink="http://www.w3.org/1999/xlink">
    <!-- Generator: Sketch 49.3 (51167) - http://www.bohemiancoding.com/sketch -->
    <title>Iconos/Basicos/Mail</title>
    <desc>Created with Sketch.</desc>
    <defs>
        <path d="M18.1582,15.8853 L1.7502,15.8853 C1.6122,15.8853 1.5002,15.7733 1.5002,15.6353 L1.5002,7.7393 L8.4412,11.9293 C8.9012,12.2063 9.4282,12.3453 9.9542,12.3453 C10.4802,12.3453 11.0072,12.2063 11.4672,11.9293 L18.4082,7.7393 L18.4082,15.6353 C18.4082,15.7733 18.2962,15.8853 18.1582,15.8853 M1.7502,4.5003 L18.1582,4.5003 C18.2962,4.5003 18.4082,4.6123 18.4082,4.7503 L18.4082,5.9873 L10.6912,10.6453 C10.2502,10.9113 9.6582,10.9113 9.2172,10.6453 L1.5002,5.9873 L1.5002,4.7503 C1.5002,4.6123 1.6122,4.5003 1.7502,4.5003 M18.1582,3.0003 L1.7502,3.0003 C0.7852,3.0003 0.0002,3.7853 0.0002,4.7503 L0.0002,15.6353 C0.0002,16.6003 0.7852,17.3853 1.7502,17.3853 L18.1582,17.3853 C19.1232,17.3853 19.9082,16.6003 19.9082,15.6353 L19.9082,4.7503 C19.9082,3.7853 19.1232,3.0003 18.1582,3.0003" id="path-1"></path>
    </defs>
    <g id="Iconos/Basicos/Mail" stroke="none" stroke-width="1" fill="none" fill-rule="evenodd">
        <mask id="mask-2" fill="white">
            <use xlink:href="#path-1"></use>
        </mask>
        <use id="Mask" fill="#535353" xlink:href="#path-1"></use>
        <g id="Color/Gris/2-Dark" mask="url(#mask-2)" fill="#535353">
            <g transform="translate(-1.000000, -1.000000)" id="Rectangle">
                <rect x="0" y="0" width="22" height="22"></rect>
            </g>
        </g>
    </g>
</svg>