<?xml version="1.0" encoding="UTF-8"?>
<svg width="20px" height="20px" viewBox="0 0 20 20" version="1.1" xmlns="http://www.w3.org/2000/svg" xmlns:xlink="http://www.w3.org/1999/xlink">
    <!-- Generator: Sketch 49.3 (51167) - http://www.bohemiancoding.com/sketch -->
    <title>Iconos/Basicos/Notificaciones</title>
    <desc>Created with Sketch.</desc>
    <defs>
        <path d="M17.5459,15.891 C17.5199,15.935 17.4599,16.008 17.3389,16.008 L2.6599,16.008 C2.5409,16.008 2.4809,15.935 2.4549,15.891 C2.4299,15.848 2.3959,15.759 2.4559,15.658 L3.5119,13.9 C4.3599,12.485 4.8089,10.87 4.8089,9.23 L4.8089,8.046 C4.8089,5.095 7.1379,2.693 9.9999,2.693 C12.8619,2.693 15.1909,5.095 15.1909,8.046 L15.1909,9.218 C15.1909,10.868 15.6429,12.491 16.4949,13.911 L17.5429,15.658 L17.5439,15.658 C17.6039,15.759 17.5699,15.848 17.5459,15.891 M9.9999,18.604 C9.1619,18.604 8.4459,18.105 8.1539,17.404 L11.8459,17.404 C11.5539,18.105 10.8389,18.604 9.9999,18.604 M18.7679,14.949 L17.7189,13.202 C16.9939,11.996 16.6109,10.619 16.6109,9.218 L16.6109,8.046 C16.6109,5.045 14.6809,2.497 12.0219,1.623 C11.8399,0.701 11.0039,0 9.9999,0 C8.9949,0 8.1589,0.701 7.9789,1.623 C5.3179,2.497 3.3879,5.045 3.3879,8.046 L3.3879,9.23 C3.3879,10.622 3.0079,11.992 2.2869,13.192 L1.2319,14.949 C0.9269,15.459 0.9219,16.07 1.2219,16.584 C1.5209,17.097 2.0579,17.404 2.6599,17.404 L6.6709,17.404 C7.0029,18.886 8.3679,20 9.9999,20 C11.6319,20 12.9959,18.886 13.3289,17.404 L17.3389,17.404 C17.9419,17.404 18.4809,17.097 18.7789,16.583 C19.0769,16.069 19.0729,15.459 18.7679,14.949" id="path-1"></path>
    </defs>
    <g id="Iconos/Basicos/Notificaciones" stroke="none" stroke-width="1" fill="none" fill-rule="evenodd">
        <mask id="mask-2" fill="white">
            <use xlink:href="#path-1"></use>
        </mask>
        <use id="Mask" fill="#535353" xlink:href="#path-1"></use>
        <g id="Color/Gris/2-Dark" mask="url(#mask-2)" fill="#535353">
            <g transform="translate(-1.000000, -1.000000)" id="Rectangle">
                <rect x="0" y="0" width="22" height="22"></rect>
            </g>
        </g>
    </g>
</svg>