<?xml version="1.0" encoding="UTF-8"?>
<svg width="20px" height="20px" viewBox="0 0 20 20" version="1.1" xmlns="http://www.w3.org/2000/svg" xmlns:xlink="http://www.w3.org/1999/xlink">
    <!-- Generator: Sketch 49.3 (51167) - http://www.bohemiancoding.com/sketch -->
    <title>Iconos/Social/Facebook2</title>
    <desc>Created with Sketch.</desc>
    <defs></defs>
    <g id="Iconos/Social/Facebook2" stroke="none" stroke-width="1" fill="none" fill-rule="evenodd">
        <g id="Page-1" transform="translate(5.000000, 0.000000)" fill="#535353">
            <path d="M3.3916,18.487667 L5.6856,18.487667 L5.6856,10.0004541 C5.6856,9.58204198 6.0216,9.2442876 6.4356,9.2442876 L8.2876,9.2442876 L8.4616,7.56963085 L6.4356,7.56963085 C6.0216,7.56963085 5.6856,7.23086825 5.6856,6.81346434 L5.6856,5.22148179 C5.6856,4.92708096 5.7026,4.70023101 5.7296,4.53992371 C5.7676,4.31307376 5.8526,4.09227314 5.9816,3.88155474 C6.1046,3.67991033 6.3466,3.4127315 6.7976,3.28670375 C7.0386,3.21915288 7.3316,3.18588155 7.6936,3.18588155 L8.5236,3.18588155 L8.5236,1.51223301 L6.7476,1.51223301 C5.5116,1.51223301 4.6376,1.78344473 4.1506,2.31679418 C3.6466,2.86929984 3.3916,3.73637077 3.3916,4.89582608 L3.3916,6.81346434 C3.3916,7.23086825 3.0556,7.56963085 2.6416,7.56963085 L1.4996,7.56963085 L1.4996,9.2442876 L2.6416,9.2442876 C3.0556,9.2442876 3.3916,9.58204198 3.3916,10.0004541 L3.3916,18.487667 Z M6.4356,20 L2.6416,20 C2.2276,20 1.8916,19.6612374 1.8916,19.2438335 L1.8916,10.7566206 L0.7496,10.7566206 C0.3356,10.7566206 -0.0004,10.417858 -0.0004,10.0004541 L-0.0004,6.81346434 C-0.0004,6.39606043 0.3356,6.05729783 0.7496,6.05729783 L1.8916,6.05729783 L1.8916,4.89582608 C1.8916,3.34518063 2.2806,2.13228955 3.0466,1.29344884 C3.8286,0.435451908 5.0746,-0.0001 6.7476,-0.0001 L9.2736,-0.0001 C9.6876,-0.0001 10.0236,0.338662595 10.0236,0.756066507 L10.0236,3.94204806 C10.0236,4.35945197 9.6876,4.69821456 9.2736,4.69821456 L7.6936,4.69821456 C7.4406,4.69821456 7.2986,4.72039545 7.2256,4.736527 C7.2176,4.75669144 7.2116,4.77483944 7.2086,4.79197921 C7.1916,4.89380963 7.1856,5.03697716 7.1856,5.22148179 L7.1856,6.05729783 L9.2956,6.05729783 C9.5076,6.05729783 9.7106,6.14904604 9.8526,6.30733689 C9.9956,6.46764419 10.0636,6.68037903 10.0416,6.89311388 L9.7076,10.0790954 C9.6676,10.4642362 9.3456,10.7566206 8.9616,10.7566206 L7.1856,10.7566206 L7.1856,19.2438335 C7.1856,19.6612374 6.8496,20 6.4356,20 Z" id="Fill-1"></path>
        </g>
    </g>
</svg>