<?xml version="1.0" encoding="UTF-8"?>
<svg width="20px" height="20px" viewBox="0 0 20 20" version="1.1" xmlns="http://www.w3.org/2000/svg" xmlns:xlink="http://www.w3.org/1999/xlink">
    <!-- Generator: Sketch 49.3 (51167) - http://www.bohemiancoding.com/sketch -->
    <title>Iconos/Social/Facebook</title>
    <desc>Created with Sketch.</desc>
    <defs>
        <path d="M18.4612,17.1793 C18.4612,17.8863 17.8862,18.4613 17.1792,18.4613 L13.8102,18.4613 L13.8102,12.8483 L15.4392,12.8483 C15.8252,12.8483 16.1522,12.5623 16.2022,12.1783 L16.5632,9.3923 C16.5912,9.1733 16.5242,8.9523 16.3772,8.7853 C16.2322,8.6193 16.0212,8.5243 15.8002,8.5243 L13.8102,8.5243 L13.8102,7.5143 C13.8102,7.0063 13.8102,6.9283 14.4212,6.9283 L15.8972,6.9273 C16.3202,6.9263 16.6652,6.5823 16.6652,6.1573 L16.6652,3.6653 C16.6652,3.2793 16.3772,2.9523 15.9952,2.9033 C15.6492,2.8583 14.7332,2.7873 13.7462,2.7873 C11.1032,2.7873 9.3942,4.5343 9.3942,7.2393 L9.3942,8.5253 L7.7582,8.5253 C7.3332,8.5253 6.9882,8.8693 6.9882,9.2943 L6.9882,12.0813 C6.9882,12.5063 7.3332,12.8503 7.7582,12.8503 L9.3942,12.8503 L9.3942,18.4613 L2.8202,18.4613 C2.1132,18.4613 1.5382,17.8863 1.5382,17.1793 L1.5382,2.8203 C1.5382,2.1133 2.1132,1.5383 2.8202,1.5383 L17.1792,1.5383 C17.8862,1.5383 18.4612,2.1133 18.4612,2.8203 L18.4612,17.1793 Z M17.1792,0.0003 L2.8202,0.0003 C1.2652,0.0003 0.0002,1.2653 0.0002,2.8203 L0.0002,17.1793 C0.0002,18.7353 1.2652,20.0003 2.8202,20.0003 L10.1632,20.0003 C10.5882,20.0003 10.9332,19.6553 10.9332,19.2303 L10.9332,12.0813 C10.9332,11.6563 10.5882,11.3123 10.1632,11.3123 L8.5262,11.3123 L8.5262,10.0633 L10.1632,10.0633 C10.5882,10.0633 10.9332,9.7193 10.9332,9.2943 L10.9332,7.2393 C10.9332,5.3873 11.9582,4.3253 13.7462,4.3253 C14.2642,4.3253 14.7502,4.3463 15.1262,4.3703 L15.1262,5.3883 L14.4202,5.3893 C12.9942,5.3893 12.2712,6.1043 12.2712,7.5143 L12.2712,9.2933 C12.2712,9.7183 12.6152,10.0623 13.0402,10.0623 L14.9242,10.0623 L14.7632,11.3103 L13.0402,11.3103 C12.6152,11.3103 12.2712,11.6553 12.2712,12.0793 L12.2712,19.2303 C12.2712,19.6553 12.6152,20.0003 13.0402,20.0003 L17.1792,20.0003 C18.7342,20.0003 19.9992,18.7353 19.9992,17.1793 L19.9992,2.8203 C19.9992,1.2653 18.7342,0.0003 17.1792,0.0003 Z" id="path-1"></path>
    </defs>
    <g id="Iconos/Social/Facebook" stroke="none" stroke-width="1" fill="none" fill-rule="evenodd">
        <mask id="mask-2" fill="white">
            <use xlink:href="#path-1"></use>
        </mask>
        <use id="Mask" fill="#535353" xlink:href="#path-1"></use>
        <g id="Color/Gris/2-Dark" mask="url(#mask-2)" fill="#535353">
            <g transform="translate(-1.000000, -1.000000)" id="Rectangle">
                <rect x="0" y="0" width="22" height="22"></rect>
            </g>
        </g>
    </g>
</svg>