<?xml version="1.0" encoding="UTF-8"?>
<svg width="20px" height="20px" viewBox="0 0 20 20" version="1.1" xmlns="http://www.w3.org/2000/svg" xmlns:xlink="http://www.w3.org/1999/xlink">
    <!-- Generator: Sketch 49.3 (51167) - http://www.bohemiancoding.com/sketch -->
    <title>Iconos/Social/Instagram</title>
    <desc>Created with Sketch.</desc>
    <defs>
        <path d="M18.6046512,14.1868319 C18.6046512,16.6230861 16.6223256,18.6044612 14.1869767,18.6044612 L5.81302326,18.6044612 C3.37767442,18.6044612 1.39534884,16.6230861 1.39534884,14.1868319 L1.39534884,5.8129639 C1.39534884,3.37670971 3.37767442,1.39533459 5.81302326,1.39533459 L14.1869767,1.39533459 C16.6223256,1.39533459 18.6046512,3.37670971 18.6046512,5.8129639 L18.6046512,14.1868319 Z M14.1869767,0 L5.81302326,0 C2.60837209,0 0,2.60741524 0,5.8129639 L0,14.1868319 C0,17.3923805 2.60837209,19.9997958 5.81302326,19.9997958 L14.1869767,19.9997958 C17.3916279,19.9997958 20,17.3923805 20,14.1868319 L20,5.8129639 C20,2.60741524 17.3916279,0 14.1869767,0 Z M9.99842557,13.3910261 C8.12895251,13.3910261 6.60733165,11.8701114 6.60733165,9.99943278 C6.60733165,8.12968443 8.12895251,6.60876973 9.99842557,6.60876973 C11.8678986,6.60876973 13.3895195,8.12968443 13.3895195,9.99943278 C13.3895195,11.8701114 11.8678986,13.3910261 9.99842557,13.3910261 M9.99842557,5.21343514 C12.6370798,5.21343514 14.7846486,7.36038996 14.7846486,9.99943278 C14.7846486,12.6394058 12.6370798,14.7863606 9.99842557,14.7863606 C7.35977131,14.7863606 5.2122025,12.6394058 5.2122025,9.99943278 C5.2122025,7.36038996 7.35977131,5.21343514 9.99842557,5.21343514 Z M15.3237265,3.33754732 C16.0343123,3.33754732 16.6100356,3.91335539 16.6100356,4.62404581 C16.6100356,5.33473623 16.0343123,5.91147452 15.3237265,5.91147452 C14.6131408,5.91147452 14.0364874,5.33473623 14.0364874,4.62404581 C14.0364874,3.91335539 14.6131408,3.33754732 15.3237265,3.33754732 Z" id="path-1"></path>
    </defs>
    <g id="Iconos/Social/Instagram" stroke="none" stroke-width="1" fill="none" fill-rule="evenodd">
        <mask id="mask-2" fill="white">
            <use xlink:href="#path-1"></use>
        </mask>
        <use id="Mask" fill="#535353" xlink:href="#path-1"></use>
        <g id="Color/Gris/2-Dark" mask="url(#mask-2)" fill="#535353">
            <rect id="Rectangle" x="0" y="0" width="22" height="22"></rect>
        </g>
    </g>
</svg>