<?xml version="1.0" encoding="UTF-8"?>
<svg width="20px" height="20px" viewBox="0 0 20 20" version="1.1" xmlns="http://www.w3.org/2000/svg" xmlns:xlink="http://www.w3.org/1999/xlink">
    <!-- Generator: Sketch 49.3 (51167) - http://www.bohemiancoding.com/sketch -->
    <title>Iconos/Social/Twitter</title>
    <desc>Created with Sketch.</desc>
    <defs>
        <path d="M13.3443,1.9998 C10.8883,1.9998 8.8503,3.8278 8.5193,6.1938 C6.5733,5.7728 4.8043,4.6988 3.5273,3.1318 C3.2793,2.8268 2.9063,2.6518 2.5163,2.6518 C2.4833,2.6518 2.4483,2.6528 2.4153,2.6558 C1.9893,2.6888 1.6063,2.9288 1.3903,3.2978 C0.9573,4.0378 0.7293,4.8848 0.7293,5.7498 C0.7293,6.3258 0.8303,6.8878 1.0213,7.4138 C0.8173,7.6478 0.6993,7.9508 0.6993,8.2708 L0.6993,8.3148 C0.6993,9.5648 1.1803,10.7258 1.9783,11.6008 C1.9323,11.8188 1.9413,12.0498 2.0123,12.2698 C2.2863,13.1268 2.7823,13.8668 3.4253,14.4348 C3.0133,14.5248 2.5883,14.5698 2.1563,14.5698 C1.9273,14.5698 1.6903,14.5568 1.4503,14.5298 C1.4013,14.5238 1.3523,14.5208 1.3033,14.5208 C0.7573,14.5208 0.2623,14.8648 0.0753,15.3888 C-0.1277,15.9598 0.0893,16.5958 0.6003,16.9228 C2.4463,18.1088 4.5803,18.7348 6.7733,18.7348 C10.1323,18.7348 13.1573,17.4038 15.2873,14.9858 C17.1183,12.9088 18.1843,10.1688 18.2263,7.4468 C18.8223,6.9418 19.3423,6.3558 19.7813,5.6998 C20.1033,5.2168 20.0673,4.5798 19.6943,4.1358 C19.6253,4.0558 19.5503,3.9848 19.4693,3.9248 C19.6143,3.4198 19.4423,2.8748 19.0303,2.5458 C18.7923,2.3568 18.5043,2.2608 18.2153,2.2608 C17.9873,2.2608 17.7573,2.3208 17.5513,2.4418 C17.1553,2.6768 16.7363,2.8628 16.3003,2.9988 C15.4573,2.3568 14.4153,1.9998 13.3443,1.9998 M13.3443,3.3048 C14.3713,3.3048 15.2973,3.7368 15.9483,4.4318 C16.7613,4.2708 17.5243,3.9738 18.2153,3.5648 C17.9483,4.3958 17.3843,5.0968 16.6473,5.5378 C17.3683,5.4518 18.0553,5.2588 18.6963,4.9758 C18.2183,5.6908 17.6123,6.3188 16.9113,6.8188 L16.9233,7.2808 C16.9233,11.9948 13.3353,17.4308 6.7733,17.4308 C4.7583,17.4308 2.8833,16.8398 1.3043,15.8258 C1.5833,15.8568 1.8673,15.8748 2.1563,15.8748 C3.8263,15.8748 5.3653,15.3068 6.5863,14.3498 C5.0263,14.3218 3.7083,13.2908 3.2543,11.8728 C3.4723,11.9158 3.6953,11.9378 3.9253,11.9378 C4.2513,11.9378 4.5673,11.8938 4.8653,11.8128 C3.2353,11.4848 2.0043,10.0428 2.0043,8.3148 L2.0043,8.2708 C2.4863,8.5378 3.0353,8.6988 3.6203,8.7188 C2.6633,8.0798 2.0333,6.9868 2.0333,5.7498 C2.0333,5.0948 2.2083,4.4818 2.5163,3.9568 C4.2763,6.1148 6.9053,7.5348 9.8683,7.6838 C9.8083,7.4228 9.7773,7.1498 9.7773,6.8708 C9.7773,4.9018 11.3743,3.3048 13.3443,3.3048" id="path-1"></path>
    </defs>
    <g id="Iconos/Social/Twitter" stroke="none" stroke-width="1" fill="none" fill-rule="evenodd">
        <mask id="mask-2" fill="white">
            <use xlink:href="#path-1"></use>
        </mask>
        <use id="Mask" fill="#535353" xlink:href="#path-1"></use>
        <g id="Color/Gris/2-Dark" mask="url(#mask-2)" fill="#535353">
            <g transform="translate(-1.000000, -1.000000)" id="Rectangle">
                <rect x="0" y="0" width="22" height="22"></rect>
            </g>
        </g>
    </g>
</svg>