<?xml version="1.0" encoding="UTF-8"?>
<svg width="20px" height="20px" viewBox="0 0 20 20" version="1.1" xmlns="http://www.w3.org/2000/svg" xmlns:xlink="http://www.w3.org/1999/xlink">
    <!-- Generator: Sketch 49.3 (51167) - http://www.bohemiancoding.com/sketch -->
    <title>Iconos/Social/Whatsapp</title>
    <desc>Created with Sketch.</desc>
    <defs>
        <path d="M10.2668,1.5 C5.7078,1.5 1.9998,5.208 1.9998,9.767 C1.9998,11.303 2.4338,12.811 3.2538,14.126 C3.3798,14.328 3.4028,14.578 3.3148,14.8 L1.9958,18.122 L5.9778,17.066 C6.1578,17.019 6.3468,17.039 6.5118,17.124 C7.6908,17.727 8.9548,18.033 10.2668,18.033 C14.8258,18.033 18.5338,14.325 18.5338,9.767 C18.5338,5.208 14.8258,1.5 10.2668,1.5 M0.7498,19.978 C0.5388,19.978 0.3328,19.889 0.1898,19.726 C0.0008,19.514 -0.0512,19.214 0.0528,18.951 L1.7848,14.59 C0.9428,13.116 0.4998,11.457 0.4998,9.767 C0.4998,4.381 4.8808,0 10.2668,0 C15.6528,0 20.0338,4.381 20.0338,9.767 C20.0338,15.152 15.6528,19.533 10.2668,19.533 C8.8118,19.533 7.4078,19.215 6.0898,18.588 L0.9428,19.953 C0.8788,19.97 0.8148,19.978 0.7498,19.978 M14.7658,12.1128 C14.7078,12.0178 14.5518,11.9598 14.3198,11.8348 C14.0778,11.7178 12.9248,11.1598 12.7028,11.0828 C12.4928,11.0048 12.3358,10.9668 12.1798,11.1988 C12.0158,11.4288 11.5708,11.9608 11.4338,12.1128 C11.2888,12.2678 11.1538,12.2868 10.9198,12.1718 C10.6908,12.0568 9.9278,11.8088 9.0308,11.0098 C8.3328,10.3948 7.8578,9.6318 7.7218,9.3948 C7.5808,9.1588 7.7048,9.0328 7.8238,8.9188 C7.9328,8.8128 8.0598,8.6428 8.1758,8.5078 C8.2968,8.3728 8.3348,8.2768 8.4128,8.1218 C8.4918,7.9628 8.4518,7.8278 8.3938,7.7078 C8.3348,7.5908 7.8618,6.4448 7.6668,5.9758 C7.4688,5.5088 7.2768,5.5858 7.1408,5.5858 C6.9988,5.5858 6.8458,5.5668 6.6858,5.5668 C6.5318,5.5668 6.2758,5.6238 6.0568,5.8608 C5.8438,6.0918 5.2338,6.6568 5.2338,7.8078 C5.2338,8.9548 6.0768,10.0698 6.1978,10.2228 C6.3148,10.3778 7.8238,12.8078 10.2178,13.7438 C12.6098,14.6788 12.6098,14.3708 13.0448,14.3308 C13.4698,14.2918 14.4388,13.7638 14.6328,13.2228 C14.8238,12.6728 14.8238,12.2098 14.7658,12.1128" id="path-1"></path>
    </defs>
    <g id="Iconos/Social/Whatsapp" stroke="none" stroke-width="1" fill="none" fill-rule="evenodd">
        <mask id="mask-2" fill="white">
            <use xlink:href="#path-1"></use>
        </mask>
        <use id="Mask" fill="#535353" xlink:href="#path-1"></use>
        <g id="Color/Gris/2-Dark" mask="url(#mask-2)" fill="#535353">
            <g transform="translate(-1.000000, -1.000000)" id="Rectangle">
                <rect x="0" y="0" width="22" height="22"></rect>
            </g>
        </g>
    </g>
</svg>