<?xml version="1.0" encoding="UTF-8"?>
<svg width="20px" height="20px" viewBox="0 0 20 20" version="1.1" xmlns="http://www.w3.org/2000/svg" xmlns:xlink="http://www.w3.org/1999/xlink">
    <!-- Generator: Sketch 49.3 (51167) - http://www.bohemiancoding.com/sketch -->
    <title>Iconos/Fav/Outline</title>
    <desc>Created with Sketch.</desc>
    <defs>
        <path d="M15.0289,11.8009 C14.6419,12.1899 14.4599,12.7449 14.5409,13.2859 L15.2799,18.2129 C15.3089,18.4049 15.1869,18.5109 15.1329,18.5469 C15.0799,18.5839 14.9369,18.6549 14.7679,18.5609 L10.7389,16.2659 C10.4739,16.1139 10.1749,16.0389 9.8759,16.0389 C9.5919,16.0389 9.3079,16.1069 9.0529,16.2439 L4.9719,18.4359 C4.7979,18.5289 4.6589,18.4499 4.6039,18.4119 C4.5509,18.3739 4.4309,18.2639 4.4649,18.0719 L5.3269,13.1719 C5.4229,12.6319 5.2539,12.0719 4.8749,11.6739 L1.4919,8.1149 C1.3599,7.9749 1.3949,7.8199 1.4159,7.7589 C1.4369,7.6989 1.5069,7.5549 1.6979,7.5289 L6.3469,6.8769 C6.9249,6.7959 7.4199,6.4349 7.6739,5.9119 L9.7699,1.5849 C9.8529,1.4119 10.0099,1.3909 10.0779,1.3909 C10.1259,1.3929 10.3069,1.4079 10.3909,1.5929 L12.4029,6.0269 C12.6279,6.5209 13.0829,6.8699 13.6189,6.9579 L18.3099,7.7369 C18.5019,7.7679 18.5669,7.9129 18.5869,7.9739 C18.6069,8.0349 18.6369,8.1909 18.5019,8.3269 L15.0289,11.8009 Z M19.4899,9.3089 C19.9539,8.8449 20.1169,8.1699 19.9149,7.5479 C19.7149,6.9249 19.1869,6.4709 18.5399,6.3639 L13.8479,5.5859 C13.7709,5.5729 13.7069,5.5239 13.6749,5.4529 L11.6629,1.0189 C11.3819,0.3989 10.7819,0.0089 10.0979,0.0009 C10.0919,-0.0001 10.0839,-0.0001 10.0769,-0.0001 C9.4039,-0.0001 8.8049,0.3749 8.5119,0.9799 L6.4179,5.3069 C6.3669,5.4109 6.2669,5.4829 6.1529,5.4989 L1.5039,6.1509 C0.8529,6.2419 0.3149,6.6829 0.0979,7.3009 C-0.1171,7.9179 0.0279,8.5959 0.4789,9.0719 L3.8619,12.6299 C3.9379,12.7099 3.9719,12.8219 3.9539,12.9309 L3.0909,17.8309 C2.9739,18.4929 3.2409,19.1479 3.7869,19.5399 C4.3339,19.9329 5.0409,19.9799 5.6339,19.6599 L9.7169,17.4679 C9.8179,17.4129 9.9419,17.4149 10.0459,17.4729 L14.0759,19.7699 C14.3469,19.9239 14.6439,19.9999 14.9399,19.9999 C15.2829,19.9999 15.6249,19.8979 15.9219,19.6959 C16.4759,19.3169 16.7589,18.6709 16.6609,18.0079 L15.9219,13.0809 C15.9049,12.9719 15.9409,12.8599 16.0179,12.7819 L19.4899,9.3089 Z" id="path-1"></path>
    </defs>
    <g id="Iconos/Fav/Outline" stroke="none" stroke-width="1" fill="none" fill-rule="evenodd">
        <mask id="mask-2" fill="white">
            <use xlink:href="#path-1"></use>
        </mask>
        <use id="Mask" fill="#535353" xlink:href="#path-1"></use>
        <g id="Color/Gris/2-Dark" mask="url(#mask-2)" fill="#535353">
            <g transform="translate(-1.000000, -1.000000)" id="Rectangle">
                <rect x="0" y="0" width="22" height="22"></rect>
            </g>
        </g>
    </g>
</svg>