<svg id="Layer_1" data-name="Layer 1" xmlns="http://www.w3.org/2000/svg" viewBox="0 0 266 242"><defs><style>.cls-1{stroke:#000;stroke-linecap:round;stroke-linejoin:round;stroke-width:2px;}</style></defs><title>Iconos</title><path class="cls-1" d="M133,45.27A75.73,75.73,0,1,0,208.73,121,75.81,75.81,0,0,0,133,45.27Zm0,146.41A70.68,70.68,0,1,1,203.68,121,70.76,70.76,0,0,1,133,191.68Z"/><path class="cls-1" d="M135.52,111V85.35a2.52,2.52,0,1,0-5,0V111a10.08,10.08,0,0,0-7.21,7.21h-18a2.52,2.52,0,0,0,0,5h18A10.08,10.08,0,1,0,135.52,111ZM133,125.74a5,5,0,1,1,5-5A5.05,5.05,0,0,1,133,125.74Z"/><path class="cls-1" d="M133,70.21a2.52,2.52,0,0,0,2.52-2.52V65.16a2.52,2.52,0,1,0-5,0v2.52A2.52,2.52,0,0,0,133,70.21Z"/><path class="cls-1" d="M133,171.18a2.52,2.52,0,0,0-2.52,2.52v2.52a2.52,2.52,0,0,0,5,0V173.7A2.52,2.52,0,0,0,133,171.18Z"/><path class="cls-1" d="M188.53,118.17H186a2.52,2.52,0,1,0,0,5h2.52a2.52,2.52,0,1,0,0-5Z"/><path class="cls-1" d="M80,118.17H77.47a2.52,2.52,0,1,0,0,5H80a2.52,2.52,0,1,0,0-5Z"/><path class="cls-1" d="M170.48,79.64l-1.78,1.78A2.52,2.52,0,1,0,172.27,85l1.78-1.78a2.52,2.52,0,0,0-3.57-3.57Z"/><path class="cls-1" d="M93.73,156.39l-1.78,1.78a2.52,2.52,0,1,0,3.57,3.57L97.3,160a2.52,2.52,0,0,0-3.57-3.57Z"/><path class="cls-1" d="M172.27,156.39A2.52,2.52,0,0,0,168.7,160l1.78,1.78a2.52,2.52,0,0,0,3.57-3.57Z"/><path class="cls-1" d="M95.52,79.64a2.52,2.52,0,0,0-3.57,3.57L93.73,85a2.52,2.52,0,0,0,3.57-3.57Z"/></svg>