<svg id="Layer_1" data-name="Layer 1" xmlns="http://www.w3.org/2000/svg" viewBox="0 0 266 242"><defs><style>.cls-1{stroke:#000;stroke-miterlimit:10;stroke-width:5px;}</style></defs><title>Iconos</title><path d="M94.67,152.55a2.74,2.74,0,0,0-3.73-1l-6.83,4v-7.89a2.71,2.71,0,0,0-5.41,0v7.89l-6.83-4a2.73,2.73,0,0,0-2.75,4.71l6.87,4-6.87,4A2.73,2.73,0,0,0,71.87,169l6.83-4v7.89a2.71,2.71,0,0,0,5.41,0V165l6.83,4a2.73,2.73,0,0,0,2.75-4.71l-6.87-4,6.87-4A2.71,2.71,0,0,0,94.67,152.55Z"/><path d="M119.74,168a2.74,2.74,0,0,0,3.73,1l6.83-4v7.89a2.71,2.71,0,0,0,5.41,0V165l6.83,4a2.73,2.73,0,0,0,2.75-4.71l-6.87-4,6.87-4a2.73,2.73,0,0,0-2.75-4.71l-6.83,4V147.6a2.71,2.71,0,0,0-5.41,0v7.89l-6.83-3.92a2.73,2.73,0,0,0-2.75,4.71l6.87,4-6.87,4A2.74,2.74,0,0,0,119.74,168Z"/><path d="M114.87,188.53v4.79a2.09,2.09,0,0,0,2.08,2.08h32.14a2.09,2.09,0,0,0,2.08-2.08v-4.79a2.09,2.09,0,0,0-2.08-2.08H117A2.07,2.07,0,0,0,114.87,188.53Z"/><path d="M166.43,188.53v4.79a2.09,2.09,0,0,0,2.08,2.08h32.14a2.09,2.09,0,0,0,2.08-2.08v-4.79a2.09,2.09,0,0,0-2.08-2.08H168.51A2.09,2.09,0,0,0,166.43,188.53Z"/><path d="M171.3,168a2.74,2.74,0,0,0,3.73,1l6.83-4v7.89a2.71,2.71,0,1,0,5.41,0V165l6.83,4a2.73,2.73,0,0,0,2.75-4.71l-6.87-4,6.87-4a2.73,2.73,0,1,0-2.75-4.71l-6.83,4V147.6a2.71,2.71,0,1,0-5.41,0v7.89l-6.83-4a2.73,2.73,0,1,0-2.75,4.71l6.87,4-6.87,4A2.74,2.74,0,0,0,171.3,168Z"/><path d="M65.35,195.39H97.49a2.09,2.09,0,0,0,2.08-2.08v-4.79a2.09,2.09,0,0,0-2.08-2.08H65.35a2.09,2.09,0,0,0-2.08,2.08v4.79A2.09,2.09,0,0,0,65.35,195.39Z"/><path class="cls-1" d="M156,75.46V67.41c0-11.47-10.3-20.8-23-20.8s-23,9.33-23,20.8v8.05a10.38,10.38,0,0,0-8.61,10.21v28a10.38,10.38,0,0,0,10.37,10.37h42.38a10.38,10.38,0,0,0,10.37-10.37v-28A10.38,10.38,0,0,0,156,75.46Zm-43-8.05c0-9.89,9-17.93,20.08-17.93s20.08,8,20.08,17.93V75.3H112.92Zm48.77,46.29a7.51,7.51,0,0,1-7.5,7.5H111.81a7.51,7.51,0,0,1-7.5-7.5v-28a7.51,7.51,0,0,1,7.5-7.5h42.38a7.51,7.51,0,0,1,7.5,7.5Z"/><path class="cls-1" d="M135.87,101.12a2.87,2.87,0,0,1-5.74,0V92.51a2.87,2.87,0,0,1,5.74,0Z"/></svg>