<svg id="Layer_1" data-name="Layer 1" xmlns="http://www.w3.org/2000/svg" viewBox="0 0 266 242"><defs><style>.cls-1{stroke:#000;stroke-miterlimit:10;}</style></defs><title>Iconos</title><path class="cls-1" d="M193.85,153.3a2.14,2.14,0,0,0-1.74-1.47l-16.63-2.33L168.05,135a2.22,2.22,0,0,0-3.8,0l-7.43,14.5-16.63,2.33A2.14,2.14,0,0,0,139,155.5l12,11.26-2.83,15.88a2.14,2.14,0,0,0,3.07,2.28l14.89-7.55L181,184.93a2.11,2.11,0,0,0,1,.23,2.14,2.14,0,0,0,2.11-2.51l-2.83-15.88,12-11.26A2.13,2.13,0,0,0,193.85,153.3Zm-16.33,11.14a2.14,2.14,0,0,0-.64,1.93l2.28,12.8-12-6.1a2.14,2.14,0,0,0-1.93,0l-12,6.1,2.28-12.8a2.13,2.13,0,0,0-.64-1.93l-9.58-9,13.31-1.86a2.13,2.13,0,0,0,1.61-1.14l6-11.77,6,11.77a2.14,2.14,0,0,0,1.61,1.14l13.31,1.86Z"/><path class="cls-1" d="M93.43,61.12h72.72v62a2.14,2.14,0,0,0,2.14,2.14h0a2.14,2.14,0,0,0,2.14-2.14V59.62a2.78,2.78,0,0,0-2.78-2.78H74.82A2.78,2.78,0,0,0,72,59.62V182.38a2.78,2.78,0,0,0,2.78,2.78h59.25a2.14,2.14,0,0,0,2.14-2.14h0a2.14,2.14,0,0,0-2.14-2.14H93.43ZM76.32,180.88V61.12H89.16V180.88Z"/><path d="M155.46,104.13V82.26a4,4,0,0,0-4-4H108.16a4,4,0,0,0-4,4v21.87a4,4,0,0,0,4,4h43.25A4,4,0,0,0,155.46,104.13ZM108.4,82.5h42.77v21.39H108.4Z"/><rect x="114.82" y="86.72" width="29.94" height="3.96"/><rect x="114.82" y="94.65" width="29.94" height="3.96"/></svg>