<svg id="Layer_1" data-name="Layer 1" xmlns="http://www.w3.org/2000/svg" viewBox="0 0 266 242"><title>Iconos</title><path d="M170.45,86.26c22.26,0,39-8.65,39-20.14S192.71,46,170.45,46s-39,8.65-39,20.14S148.19,86.26,170.45,86.26Zm0-31.63c18.56,0,30.41,6.82,30.41,11.52S189,77.68,170.45,77.68,140,70.86,140,66.16,151.89,54.63,170.45,54.63Z"/><path d="M206.21,86.66a4.31,4.31,0,0,0-5.53,2.55c-1.83,5-13.89,10.38-30.19,10.38-15.87,0-27.75-5.1-30.05-10a4.32,4.32,0,1,0-7.83,3.66c4.2,9,19.42,15,37.88,15a67.94,67.94,0,0,0,24.13-4.09c7.47-2.91,12.39-7,14.18-12A4.33,4.33,0,0,0,206.21,86.66Z"/><path d="M206.21,108.63a4.31,4.31,0,0,0-5.53,2.55c-1.83,5-13.89,10.38-30.19,10.38-15.87,0-27.75-5.1-30.05-10a4.32,4.32,0,1,0-7.83,3.66c4.2,9,19.42,15,37.88,15a67.94,67.94,0,0,0,24.13-4.09c7.47-2.91,12.39-7,14.18-12A4.33,4.33,0,0,0,206.21,108.63Z"/><path d="M206.21,130.57a4.31,4.31,0,0,0-5.53,2.55c-1.83,5-13.89,10.38-30.19,10.38-15.87,0-27.75-5.1-30.05-10a4.32,4.32,0,0,0-7.83,3.66c4.2,9,19.42,15,37.88,15A67.94,67.94,0,0,0,194.62,148c7.47-2.91,12.39-7,14.18-12A4.33,4.33,0,0,0,206.21,130.57Z"/><path d="M206.21,152.54a4.31,4.31,0,0,0-5.53,2.55c-1.83,5-13.89,10.38-30.19,10.38-15.87,0-27.75-5.1-30.05-10a4.32,4.32,0,0,0-7.83,3.66c4.2,9,19.42,15,37.88,15A67.94,67.94,0,0,0,194.62,170c7.47-2.91,12.39-7,14.18-12A4.3,4.3,0,0,0,206.21,152.54Z"/><path d="M206.21,174.48a4.31,4.31,0,0,0-5.53,2.55c-1.83,5-13.89,10.38-30.19,10.38-15.87,0-27.75-5.1-30.05-10a4.32,4.32,0,0,0-7.83,3.66c4.2,9,19.42,15,37.88,15a67.94,67.94,0,0,0,24.13-4.09c7.47-2.91,12.39-7,14.18-12A4.33,4.33,0,0,0,206.21,174.48Z"/><path d="M111.54,130.57a4.31,4.31,0,0,0-5.53,2.55c-1.83,5-13.89,10.38-30.19,10.38-15.87,0-27.75-5.1-30.05-10a4.32,4.32,0,0,0-7.83,3.66c4.2,9,19.42,15,37.88,15A67.94,67.94,0,0,0,99.94,148c7.47-2.91,12.39-7,14.18-12A4.33,4.33,0,0,0,111.54,130.57Z"/><path d="M111.54,152.54a4.31,4.31,0,0,0-5.53,2.55c-1.83,5-13.89,10.38-30.19,10.38-15.87,0-27.75-5.1-30.05-10a4.32,4.32,0,0,0-7.83,3.66c4.2,9,19.42,15,37.88,15A67.94,67.94,0,0,0,99.94,170c7.47-2.91,12.39-7,14.18-12A4.3,4.3,0,0,0,111.54,152.54Z"/><path d="M111.54,174.48A4.31,4.31,0,0,0,106,177c-1.83,5-13.89,10.38-30.19,10.38-15.87,0-27.75-5.1-30.05-10A4.32,4.32,0,0,0,37.93,181c4.2,9,19.42,15,37.88,15a67.94,67.94,0,0,0,24.13-4.09c7.47-2.91,12.39-7,14.18-12A4.33,4.33,0,0,0,111.54,174.48Z"/><path d="M75.81,89.89c-22.26,0-39,8.65-39,20.14s16.77,20.14,39,20.14,39-8.65,39-20.14S98.07,89.89,75.81,89.89Zm0,31.67c-18.56,0-30.41-6.82-30.41-11.52S57.25,98.51,75.81,98.51s30.41,6.82,30.41,11.52S94.37,121.56,75.81,121.56Z"/></svg>