<svg id="Layer_1" data-name="Layer 1" xmlns="http://www.w3.org/2000/svg" viewBox="0 0 266 242"><defs><style>.cls-1{stroke:#000;stroke-linecap:round;stroke-linejoin:round;stroke-width:2px;}</style></defs><title>Iconos</title><path class="cls-1" d="M191.87,112.62h-3.14V91.44a8.75,8.75,0,0,0-8.63-8.88h-2.36V68.4c0-5-3.66-8.88-8.11-8.88h-.53l-89.48,23-.1,0a8.83,8.83,0,0,0-8,8.88V173.6a8.75,8.75,0,0,0,8.63,8.88H180.1A8.8,8.8,0,0,0,189,173.6V151.87h2.89a2.46,2.46,0,0,0,2.61-2.61v-34A2.63,2.63,0,0,0,191.87,112.62ZM170.14,64.49a3.86,3.86,0,0,1,2.61,3.91V82.53H100.55l69.59-18ZM183.76,173.6a3.81,3.81,0,0,1-3.66,3.91H80.15a3.81,3.81,0,0,1-3.66-3.91V91.44a3.81,3.81,0,0,1,3.66-3.91h99.67a3.81,3.81,0,0,1,3.66,3.91v21.18h-25.9a19.62,19.62,0,0,0,0,39.25h26.17V173.6Zm5.47-26.7H157.59a14.38,14.38,0,0,1,0-28.76h31.64Z"/><path class="cls-1" d="M154.71,132.77a2.61,2.61,0,0,0,2.61,2.61h2.36a2.61,2.61,0,1,0,0-5.22h-2.33A2.48,2.48,0,0,0,154.71,132.77Z"/></svg>