<svg id="Layer_1" data-name="Layer 1" xmlns="http://www.w3.org/2000/svg" viewBox="0 0 266 242"><defs><style>.cls-1{stroke:#000;stroke-linecap:round;stroke-linejoin:round;stroke-width:2px;}</style></defs><title>Iconos</title><path class="cls-1" d="M204.79,154.94a.81.81,0,0,0,0-.26.85.85,0,0,0-.06-.26c0-.09,0-.18-.06-.23a766837.29,766837.29,0,0,1-.23-.47.53.53,0,0,0-.15-.2c-.06-.06-.09-.15-.15-.2a1.27,1.27,0,0,0-.2-.18l-.18-.18a1.63,1.63,0,0,0-.23-.15,1.27,1.27,0,0,0-.2-.12L171,136.76a.88.88,0,0,0-.29-.12c-.56-.2-13.88-4.86-24.77,0l-24,8.7-.2.09a8,8,0,0,0,2.93,15.31h.06c.23,0,1.29-.06,12.24-.76,4.77-.29,9.69-.61,10.13-.64a2.65,2.65,0,0,0-.06-5.3l-10.39.64-11.83.76a2.72,2.72,0,0,1-.94-5.15l24-8.7.2-.09c8.43-3.84,19.44-.38,20.76,0l14.38,7.09-7.91,18.65a16.05,16.05,0,0,0-13-1.73L130,175.26a15.19,15.19,0,0,1-11.62-1.2L67.81,146.68a2.34,2.34,0,0,1-1.08-3.07,2.22,2.22,0,0,1,2.78-1.43l39.27,13.09a2.66,2.66,0,0,0,1.7-5L71.12,137.08a.26.26,0,0,0-.15,0,7.74,7.74,0,0,0-5.68,14.29l50.57,27.47a20.44,20.44,0,0,0,15.67,1.61l32.27-9.69a10.6,10.6,0,0,1,8.76,1.2L189,182.29a.88.88,0,0,0,.23.12s0,0,.06,0h0s.06,0,.12,0l.2.09.12,0c.06,0,.15,0,.2.06a.18.18,0,0,1,.12,0c.12,0,.2,0,.32,0h0a1.43,1.43,0,0,0,.35,0,.18.18,0,0,0,.12,0,.69.69,0,0,0,.23-.06l.12,0,.2-.09s.09,0,.12-.06l.2-.12a.22.22,0,0,1,.12-.06l.18-.12.12-.09.15-.15.12-.12a.61.61,0,0,0,.12-.18l.09-.12a0,0,0,0,1,0,0,.1.1,0,0,1,0-.06,1.74,1.74,0,0,0,.12-.23l11.71-24.95.09-.23a2,2,0,0,1,.09-.23.81.81,0,0,0,0-.26c0-.09,0-.18,0-.26A.81.81,0,0,0,204.79,154.94Zm-6.15,1.35-9.34,19.88-9.46-6L188,151Z"/><path class="cls-1" d="M105,98.47h9.89a7.32,7.32,0,1,1,0,14.64H97.13a3.54,3.54,0,0,0,0,7.09h9.3v7a3.54,3.54,0,0,0,7.09,0v-7H115a14.4,14.4,0,0,0,0-28.81h-9.89a7.32,7.32,0,0,1,0-14.64h17.48a3.54,3.54,0,1,0,0-7.09h-9V62.85a3.54,3.54,0,0,0-7.09,0V69.7H105a14.38,14.38,0,1,0,0,28.77Z"/></svg>