<svg id="Layer_1" data-name="Layer 1" xmlns="http://www.w3.org/2000/svg" viewBox="0 0 266 242"><defs><style>.cls-1{stroke:#000;stroke-linecap:round;stroke-linejoin:round;stroke-width:2px;}</style></defs><title>Iconos</title><path class="cls-1" d="M176.3,201.33H89.49a16.8,16.8,0,0,1-16.78-16.78V132.75a4.33,4.33,0,1,1,8.65,0v51.79a8.14,8.14,0,0,0,8.13,8.13H176.3a8.14,8.14,0,0,0,8.13-8.13V155.89a4.33,4.33,0,0,1,8.65,0v28.65A16.8,16.8,0,0,1,176.3,201.33Z"/><path class="cls-1" d="M186.66,137.08H79.13a15.7,15.7,0,0,1,0-31.4h7.46a4.33,4.33,0,1,1,0,8.65H79.13a7,7,0,0,0,0,14.09H186.66a7,7,0,0,0,0-14.09H179.2a4.33,4.33,0,1,1,0-8.65h7.46a15.7,15.7,0,0,1,0,31.4Z"/><path class="cls-1" d="M129,82.08h6.77a5,5,0,1,1,0,10H123.61a2.43,2.43,0,0,0,0,4.85H130v4.77a2.43,2.43,0,1,0,4.85,0V97h1a9.86,9.86,0,1,0,0-19.73h-6.77a5,5,0,0,1,0-10h12a2.43,2.43,0,1,0,0-4.85h-6.16V57.68a2.43,2.43,0,0,0-4.85,0v4.69h-1a9.85,9.85,0,1,0,0,19.7Z"/><path class="cls-1" d="M132.44,118.6a39,39,0,1,0-39-39A39,39,0,0,0,132.44,118.6Zm0-73.08A34.13,34.13,0,1,1,98.31,79.65,34.16,34.16,0,0,1,132.44,45.53Z"/></svg>