<svg id="Layer_1" data-name="Layer 1" xmlns="http://www.w3.org/2000/svg" viewBox="0 0 266 242"><title>Iconos</title><path d="M197.16,101.21h-2.5a61.15,61.15,0,0,0-18-24.93v-.06c-1.24-4.29-.31-8.9,2.69-13.69a7.76,7.76,0,0,0,.22-8,7.88,7.88,0,0,0-6.86-4.08c-.34,0-.68,0-1,.06-11.46,1.42-18.32,6.64-22.28,11.49a79.87,79.87,0,0,0-21.19-2.84c-18.63,0-36.15,6.36-49.37,17.92s-20.7,27.25-20.7,43.84a54.23,54.23,0,0,0,1.51,12.79.57.57,0,0,0,.06.22,1,1,0,0,1,.06.19,57.35,57.35,0,0,0,4.6,12.3,63.85,63.85,0,0,0,11.77,17.83c6.36,6.55,7.45,14.83,7.6,18.17v1.95a1.9,1.9,0,0,0,0,.43,7.5,7.5,0,0,0,7.45,6.74h23a7.5,7.5,0,0,0,7.48-7.48V182.5a84.14,84.14,0,0,0,10.81.15v1.42a7.5,7.5,0,0,0,7.48,7.48h23a7.5,7.5,0,0,0,7.48-7.48v-5.62A19.11,19.11,0,0,1,177,165.38l.87-.74.06-.06.22-.19A61.1,61.1,0,0,0,195,139.83h2.16a10.68,10.68,0,0,0,10.66-10.66V112A10.75,10.75,0,0,0,197.16,101.21ZM200.4,129a3.24,3.24,0,0,1-3.24,3.24h-4.82a3.71,3.71,0,0,0-3.55,2.63,53.35,53.35,0,0,1-15.7,23.94l-.06.06,0,0-.83.74s-.06.06-.09.06a26.48,26.48,0,0,0-9,18.48V184a.07.07,0,0,1-.06.06H140a.07.07,0,0,1-.06-.06v-5.41a3.64,3.64,0,0,0-1.24-2.75,3.7,3.7,0,0,0-2.47-1,1.9,1.9,0,0,0-.4,0,70.16,70.16,0,0,1-7.63.4,72.41,72.41,0,0,1-9.7-.65,3.66,3.66,0,0,0-2.94.9,3.73,3.73,0,0,0-1.27,2.78V184a.07.07,0,0,1-.06.06h-23a.07.07,0,0,1-.06-.06h0v-1.88C91,178,89.67,167.48,81.45,159A57.19,57.19,0,0,1,71,143.23c0-.06,0-.09-.06-.12a49.47,49.47,0,0,1-4-10.78s0-.06,0-.09v-.06A47.31,47.31,0,0,1,65.54,121c0-30,28.12-54.38,62.66-54.38a71.14,71.14,0,0,1,21.44,3.28,3.72,3.72,0,0,0,4.2-1.45c2.75-4.08,8.22-9.18,18.72-10.5a.45.45,0,0,1,.46.25.39.39,0,0,1,0,.46c-4.11,6.55-5.31,13.35-3.52,19.65,0,0,0,.09,0,.12a3.65,3.65,0,0,0,1.39,2.78,53.87,53.87,0,0,1,17.61,24.93,3.72,3.72,0,0,0,3.52,2.56h5.1a3.24,3.24,0,0,1,3.24,3.24V129Z"/><path d="M132.24,117.22H124a5.38,5.38,0,0,1,0-10.75h14.64a3.71,3.71,0,1,0,0-7.42h-6.77v-5a3.71,3.71,0,1,0-7.42,0v5H124a12.79,12.79,0,0,0,0,25.58h8.28a5.38,5.38,0,1,1,0,10.75H117.38a3.71,3.71,0,1,0,0,7.42h7v5.07a3.71,3.71,0,0,0,7.42,0V142.8h.62a12.79,12.79,0,0,0-.22-25.58Z"/></svg>