<svg id="Layer_1" data-name="Layer 1" xmlns="http://www.w3.org/2000/svg" viewBox="0 0 266 242"><defs><style>.cls-1{stroke:#000;stroke-linecap:round;stroke-linejoin:round;stroke-width:2px;}</style></defs><title>Iconos</title><path class="cls-1" d="M191,56.64a2.18,2.18,0,0,0-2.21-2.17h0a2.19,2.19,0,0,0-2.17,2.25l.11,10.42-1.62-1.58A77.11,77.11,0,0,0,130.9,43.47H130A77,77,0,0,0,75.44,66.8a2.21,2.21,0,1,0,3.17,3.09A73.19,73.19,0,0,1,182,68.72l1.62,1.58-10.42.11a2.21,2.21,0,0,0,0,4.42h0L189,74.64a2.19,2.19,0,0,0,2.17-2.25Z"/><path class="cls-1" d="M186.33,172.07a2.29,2.29,0,0,0-3.17,0,73.19,73.19,0,0,1-103.39,1.18l-1.62-1.58,10.42-.11a2.19,2.19,0,0,0,2.17-2.25,2.21,2.21,0,0,0-2.25-2.17l-15.72.18a2.19,2.19,0,0,0-2.17,2.25l.18,15.75A2.18,2.18,0,0,0,73,187.53h0a2.19,2.19,0,0,0,2.17-2.25l-.11-10.42,1.62,1.58a77,77,0,0,0,54.18,22.08h.92a77,77,0,0,0,54.55-23.34A2.21,2.21,0,0,0,186.33,172.07Z"/><path class="cls-1" d="M191.19,120.37a15.71,15.71,0,1,0-15.71-15.71A15.73,15.73,0,0,0,191.19,120.37Zm0-27.65a11.94,11.94,0,1,1-11.94,11.94A12,12,0,0,1,191.19,92.73Z"/><path class="cls-1" d="M191.19,127.66a29.56,29.56,0,0,0-29.53,29.53,1.88,1.88,0,1,0,3.77,0,25.76,25.76,0,1,1,51.52,0,1.88,1.88,0,1,0,3.77,0A29.56,29.56,0,0,0,191.19,127.66Z"/><path class="cls-1" d="M74.81,120.37A15.71,15.71,0,1,0,59.1,104.67,15.73,15.73,0,0,0,74.81,120.37Zm0-27.65a11.94,11.94,0,1,1-11.94,11.94A12,12,0,0,1,74.81,92.73Z"/><path class="cls-1" d="M74.81,127.66a29.56,29.56,0,0,0-29.53,29.53,1.88,1.88,0,1,0,3.77,0,25.76,25.76,0,1,1,51.52,0,1.88,1.88,0,1,0,3.77,0A29.56,29.56,0,0,0,74.81,127.66Z"/></svg>