<svg id="Layer_1" data-name="Layer 1" xmlns="http://www.w3.org/2000/svg" viewBox="0 0 266 242"><defs><style>.cls-1{fill:none;stroke:#000;stroke-miterlimit:10;stroke-width:10px;}</style></defs><title>Iconos</title><path class="cls-1" d="M167.24,62.22H124.92a46.17,46.17,0,0,0-46,46v0a46.18,46.18,0,0,0,38.7,45.42l.12,20.73h0a5.51,5.51,0,0,0,9.08,4h0l0,0a5.93,5.93,0,0,0,.72-.79l22.52-23.44h17.14a46.09,46.09,0,0,0,46-45.95v0a46.15,46.15,0,0,0-46-46"/><path d="M154.31,108.49a8.23,8.23,0,1,1-8.23-8.23,8.23,8.23,0,0,1,8.23,8.23"/><path d="M131.58,108.49a8.23,8.23,0,1,1-8.23-8.23,8.23,8.23,0,0,1,8.23,8.23"/><path d="M177,108.49a8.23,8.23,0,1,1-8.23-8.23,8.23,8.23,0,0,1,8.23,8.23"/></svg>