<svg id="Layer_1" data-name="Layer 1" xmlns="http://www.w3.org/2000/svg" viewBox="0 0 266 242"><defs><style>.cls-1{stroke:#000;stroke-linecap:round;stroke-linejoin:round;stroke-width:2px;}</style></defs><title>Iconos</title><path class="cls-1" d="M189.29,58.62a2.12,2.12,0,0,0-2.14-2.11h0A2.13,2.13,0,0,0,185,58.69l.11,10.11-1.57-1.54A74.82,74.82,0,0,0,131,45.84h-.89A74.66,74.66,0,0,0,77.14,68.48a2.15,2.15,0,1,0,3.07,3,71,71,0,0,1,100.32-1.14l1.57,1.54L172,72a2.14,2.14,0,0,0,0,4.29h0l15.29-.18a2.13,2.13,0,0,0,2.11-2.18Z"/><path class="cls-1" d="M188.82,170.62a2.22,2.22,0,0,0-3.07,0A71,71,0,0,1,85.43,171.8l-1.57-1.54L94,170.16A2.13,2.13,0,0,0,96.07,168a2.15,2.15,0,0,0-2.18-2.11l-15.25.18a2.13,2.13,0,0,0-2.11,2.18l.18,15.29a2.12,2.12,0,0,0,2.14,2.11h0A2.13,2.13,0,0,0,81,183.44l-.11-10.11,1.57,1.54A74.76,74.76,0,0,0,135,196.3h.89a74.66,74.66,0,0,0,52.93-22.64A2.14,2.14,0,0,0,188.82,170.62Z"/><path class="cls-1" d="M133,110.85a15.24,15.24,0,1,0-15.24-15.24A15.26,15.26,0,0,0,133,110.85ZM133,84a11.58,11.58,0,1,1-11.58,11.58A11.6,11.6,0,0,1,133,84Z"/><path class="cls-1" d="M133,117.92a28.69,28.69,0,0,0-28.65,28.65,1.83,1.83,0,0,0,3.66,0,25,25,0,0,1,50,0,1.83,1.83,0,0,0,3.66,0A28.69,28.69,0,0,0,133,117.92Z"/></svg>