<svg id="Layer_1" data-name="Layer 1" xmlns="http://www.w3.org/2000/svg" viewBox="0 0 266 242"><defs><style>.cls-1{stroke:#000;stroke-linecap:round;stroke-linejoin:round;stroke-width:2px;}</style></defs><title>Iconos</title><path class="cls-1" d="M180.65,76.29C177,74.31,154.1,62,141.54,54.12a11.66,11.66,0,0,0-17.07,0C111.89,62,89,74.31,85.35,76.29H62.4V191.6H203.6V76.29ZM138.23,57.47l0,0a7.25,7.25,0,0,1,1.55,2.86c0,.11.08.2.1.32a7,7,0,0,1,.16,1.48,7.06,7.06,0,0,1-14.12,0,6.83,6.83,0,0,1,.16-1.48c0-.11.07-.2.1-.31a7.25,7.25,0,0,1,1.55-2.87l0,0a7,7,0,0,1,10.46,0Zm-17,4.12q0,.29,0,.58a11.77,11.77,0,1,0,23.53,0q0-.29,0-.58c8.46,5,18.91,10.82,26,14.7H95.23C102.34,72.41,112.79,66.61,121.25,61.59ZM85.93,81h113V92.76H67.11V81ZM67.11,186.89V97.47H198.89v89.43Z"/><circle class="cls-1" cx="116.53" cy="116.29" r="2.35"/><circle class="cls-1" cx="133" cy="116.29" r="2.35"/><circle class="cls-1" cx="149.47" cy="116.29" r="2.35"/><circle class="cls-1" cx="165.95" cy="116.29" r="2.35"/><circle class="cls-1" cx="182.42" cy="116.29" r="2.35"/><circle class="cls-1" cx="83.58" cy="135.12" r="2.35"/><circle class="cls-1" cx="100.05" cy="135.12" r="2.35"/><circle class="cls-1" cx="116.53" cy="135.12" r="2.35"/><circle class="cls-1" cx="133" cy="135.12" r="2.35"/><circle class="cls-1" cx="149.47" cy="135.12" r="2.35"/><circle class="cls-1" cx="165.95" cy="135.12" r="2.35"/><circle class="cls-1" cx="182.42" cy="135.12" r="2.35"/><circle class="cls-1" cx="83.58" cy="151.59" r="2.35"/><circle class="cls-1" cx="100.05" cy="151.59" r="2.35"/><circle class="cls-1" cx="116.53" cy="151.59" r="2.35"/><circle class="cls-1" cx="133" cy="151.59" r="2.35"/><circle class="cls-1" cx="149.47" cy="151.59" r="2.35"/><circle class="cls-1" cx="165.95" cy="151.59" r="2.35"/><circle class="cls-1" cx="182.42" cy="151.59" r="2.35"/><circle class="cls-1" cx="83.58" cy="170.42" r="2.35"/><circle class="cls-1" cx="100.05" cy="170.42" r="2.35"/><circle class="cls-1" cx="116.53" cy="170.42" r="2.35"/><circle class="cls-1" cx="133" cy="170.42" r="2.35"/><circle class="cls-1" cx="149.47" cy="170.42" r="2.35"/></svg>