<svg id="Layer_1" data-name="Layer 1" xmlns="http://www.w3.org/2000/svg" viewBox="0 0 266 242"><defs><style>.cls-1{stroke:#000;stroke-linecap:round;stroke-linejoin:round;stroke-width:2px;}</style></defs><title>Iconos</title><path class="cls-1" d="M158.45,156.73H107.54a2.45,2.45,0,0,1-2.43-2.16c-.59-5-2.34-12.05-7.33-17.24l0,0a54.65,54.65,0,1,1,70.24.2c-4.79,5-6.54,12.08-7.13,17.08A2.43,2.43,0,0,1,158.45,156.73Zm-48.78-4.9h46.66c.91-5.51,3.13-12.48,8.35-17.91a49.77,49.77,0,1,0-63.54-.19,2.42,2.42,0,0,1,.39.42C106.59,139.55,108.76,146.39,109.66,151.83Z"/><path class="cls-1" d="M158.45,171.51H107.54a2.44,2.44,0,0,1,0-4.89h50.91a2.44,2.44,0,0,1,0,4.89Z"/><path class="cls-1" d="M158.45,186.31H107.54a2.44,2.44,0,1,1,0-4.89h50.91a2.44,2.44,0,1,1,0,4.89Z"/><path class="cls-1" d="M143.65,201.1H122.34a2.44,2.44,0,0,1,0-4.89h21.31a2.44,2.44,0,0,1,0,4.89Z"/></svg>