<svg id="Layer_1" data-name="Layer 1" xmlns="http://www.w3.org/2000/svg" viewBox="0 0 266 242"><defs><style>.cls-1{stroke:#000;stroke-miterlimit:10;stroke-width:2px;}</style></defs><title>Iconos</title><path class="cls-1" d="M178.67,102.77a2.7,2.7,0,0,1-1.94-2.57v-13c0-21.55-19.61-38.9-43.39-38.9-14.21,0-27,6.31-35,16a2.67,2.67,0,0,0,2.11,4.31h0a2.72,2.72,0,0,0,2.15-1.09c6.87-9,17.87-13.88,30.34-13.88,20.81,0,37.65,14.93,37.65,33.51V98.75a2.67,2.67,0,0,1-2.67,2.67H95.58a2.67,2.67,0,0,0-.47,0l-4.63.83c-9.72,1.58-17,9.57-17,19.18v49.81a22.53,22.53,0,0,0,22.46,22.46h74.27a22.37,22.37,0,0,0,22.31-22.31v-50A19.88,19.88,0,0,0,178.67,102.77Zm9,69.35a16.77,16.77,0,0,1-16.77,16.77H96.32a16.77,16.77,0,0,1-16.77-16.77V124.26a16.77,16.77,0,0,1,16.77-16.77H170.9a16.77,16.77,0,0,1,16.77,16.77Z"/><path d="M133,132.13a10.79,10.79,0,0,0-10.78,10.78v16.17a10.78,10.78,0,0,0,21.56,0V142.91A10.79,10.79,0,0,0,133,132.13Z"/></svg>