<svg id="Layer_1" data-name="Layer 1" xmlns="http://www.w3.org/2000/svg" viewBox="0 0 266 242"><defs><style>.cls-1{stroke:#000;stroke-linecap:round;stroke-linejoin:round;stroke-width:2px;}</style></defs><title>Iconos</title><path class="cls-1" d="M200.84,63.11H65.16a11.11,11.11,0,0,0-11.1,11.1v93.59a11.11,11.11,0,0,0,11.1,11.1H200.84a11.11,11.11,0,0,0,11.1-11.1V74.21A11.11,11.11,0,0,0,200.84,63.11Zm5.83,104.68a5.84,5.84,0,0,1-5.83,5.83H65.16a5.84,5.84,0,0,1-5.83-5.83V74.21a5.84,5.84,0,0,1,5.83-5.83H200.84a5.84,5.84,0,0,1,5.83,5.83Z"/><path class="cls-1" d="M69.85,89.42H93.53a2.63,2.63,0,0,0,0-5.26H69.85a2.63,2.63,0,0,0,0,5.26Z"/><path class="cls-1" d="M127.74,84.16H104.06a2.63,2.63,0,1,0,0,5.26h23.68a2.63,2.63,0,1,0,0-5.26Z"/><path class="cls-1" d="M69.85,102.58h2.63a2.63,2.63,0,0,0,0-5.26H69.85a2.63,2.63,0,0,0,0,5.26Z"/><path class="cls-1" d="M83,97.32a2.63,2.63,0,0,0,0,5.26h5.26a2.63,2.63,0,0,0,0-5.26Z"/><path class="cls-1" d="M104.06,99.95a2.63,2.63,0,0,0-2.63-2.63H98.79a2.63,2.63,0,0,0,0,5.26h2.63A2.63,2.63,0,0,0,104.06,99.95Z"/><path class="cls-1" d="M117.21,102.58a2.63,2.63,0,0,0,0-5.26h-5.26a2.63,2.63,0,0,0,0,5.26Z"/><path class="cls-1" d="M125.87,98.08a2.63,2.63,0,0,0,1.87,4.5,2.72,2.72,0,0,0,1.87-.76,2.64,2.64,0,0,0-3.74-3.74Z"/><path class="cls-1" d="M151.42,113.11h47.36V81.53H151.42Zm5.26-26.31h36.84v21.05H156.68Z"/><path class="cls-1" d="M67.47,157.38H87.91V142.51H67.47Zm3.72-11.15h13v7.43h-13Z"/><path class="cls-1" d="M104.71,157.38h20.44V142.51H104.71Zm3.72-11.15h13v7.43h-13Z"/><path class="cls-1" d="M141.94,157.38h20.44V142.51H141.94Zm3.72-11.15h13v7.43h-13Z"/><path class="cls-1" d="M179.17,157.38h20.44V142.51H179.17Zm3.72-11.15h13v7.43h-13Z"/></svg>