<svg id="Layer_1" data-name="Layer 1" xmlns="http://www.w3.org/2000/svg" viewBox="0 0 266 242"><defs><style>.cls-1{stroke:#000;stroke-linecap:round;stroke-linejoin:round;stroke-width:2px;}</style></defs><title>Iconos</title><path class="cls-1" d="M156.18,43H71.9V199H194.1V80.92Zm1.52,8.88L185.22,79.4H157.7ZM77.1,193.8V48.2h75.4V84.6h36.4V193.8Z"/><path class="cls-1" d="M165.5,97.6H123.9a2.6,2.6,0,0,0,0,5.2h41.6a2.6,2.6,0,0,0,0-5.2Z"/><path class="cls-1" d="M114.48,90.37l-11.18,8.95-3.55-3.55a2.6,2.6,0,1,0-3.68,3.68l5.2,5.2a2.6,2.6,0,0,0,3.46.19l13-10.4a2.6,2.6,0,0,0-3.25-4.06Z"/><path class="cls-1" d="M165.5,126.2H123.9a2.6,2.6,0,0,0,0,5.2h41.6a2.6,2.6,0,0,0,0-5.2Z"/><path class="cls-1" d="M114.48,119l-11.18,8.95-3.55-3.55A2.6,2.6,0,1,0,96.06,128l5.2,5.2a2.6,2.6,0,0,0,3.46.19l13-10.4a2.6,2.6,0,0,0-3.25-4.06Z"/><path class="cls-1" d="M165.5,154.8H123.9a2.6,2.6,0,0,0,0,5.2h41.6a2.6,2.6,0,1,0,0-5.2Z"/><path class="cls-1" d="M114.48,147.57l-11.18,8.95L99.74,153a2.6,2.6,0,0,0-3.68,3.68l5.2,5.2a2.6,2.6,0,0,0,3.46.19l13-10.4a2.6,2.6,0,0,0-3.25-4.06Z"/></svg>