<?xml version="1.0" encoding="UTF-8"?>
<svg width="20px" height="20px" viewBox="0 0 20 20" version="1.1" xmlns="http://www.w3.org/2000/svg" xmlns:xlink="http://www.w3.org/1999/xlink">
    <!-- Generator: Sketch 49.3 (51167) - http://www.bohemiancoding.com/sketch -->
    <title>Iconos/Alerts/Alerta triangular</title>
    <desc>Created with Sketch.</desc>
    <defs>
        <polygon id="path-1" points="0.00025 0 19.99975 0 19.99975 17.9997 0.00025 17.9997"></polygon>
    </defs>
    <g id="Iconos/Alerts/Alerta-triangular" stroke="none" stroke-width="1" fill="none" fill-rule="evenodd">
        <g id="Page-1" transform="translate(0.000000, 1.000000)">
            <path d="M10.0249,12.8271 C10.6169,12.8271 11.1139,13.3301 11.1139,13.9301 C11.1139,14.5291 10.6169,15.0331 10.0249,15.0331 C9.4319,15.0331 8.9339,14.5291 8.9339,13.9301 C8.9339,13.3301 9.4319,12.8271 10.0249,12.8271" id="Fill-1" fill="#FFFFFF"></path>
            <path d="M10.0249,12.8271 C9.4319,12.8271 8.9339,13.3301 8.9339,13.9301 C8.9339,14.5291 9.4319,15.0331 10.0249,15.0331 C10.6169,15.0331 11.1139,14.5291 11.1139,13.9301 C11.1139,13.3301 10.6169,12.8271 10.0249,12.8271" id="Fill-3" fill="#535353"></path>
            <path d="M10.0005,11.8501 C9.5875,11.8501 9.2525,11.5111 9.2525,11.0931 L9.2525,5.7221 C9.2525,5.3051 9.5875,4.9651 10.0005,4.9651 C10.4135,4.9651 10.7485,5.3051 10.7485,5.7221 L10.7485,11.0931 C10.7485,11.5111 10.4135,11.8501 10.0005,11.8501" id="Fill-5" fill="#535353"></path>
            <g id="Group-9">
                <mask id="mask-2" fill="white">
                    <use xlink:href="#path-1"></use>
                </mask>
                <g id="Clip-8"></g>
                <path d="M10.0005,1.5137 C9.9755,1.5107 9.8475,1.5287 9.7845,1.6397 L1.5315,16.1087 C1.4695,16.2177 1.5055,16.3127 1.5315,16.3607 C1.5585,16.4077 1.6215,16.4867 1.7475,16.4867 L18.2535,16.4867 C18.3785,16.4867 18.4415,16.4077 18.4685,16.3607 C18.4955,16.3137 18.5305,16.2187 18.4685,16.1087 L10.2165,1.6397 C10.1535,1.5307 10.0545,1.5137 10.0005,1.5137 M18.2535,17.9997 L1.7475,17.9997 C1.1165,17.9997 0.5525,17.6697 0.2365,17.1177 C-0.0785,16.5647 -0.0785,15.9047 0.2365,15.3517 L8.4895,0.8827 C8.8055,0.3307 9.3685,0.0007 9.9995,-0.0003 L10.0005,-0.0003 C10.6305,-0.0003 11.1945,0.3297 11.5115,0.8827 L19.7635,15.3517 C20.0785,15.9047 20.0785,16.5647 19.7635,17.1177 C19.4475,17.6697 18.8835,17.9997 18.2535,17.9997" id="Fill-7" fill="#535353" mask="url(#mask-2)"></path>
            </g>
        </g>
    </g>
</svg>