<?xml version="1.0" encoding="UTF-8"?>
<svg width="20px" height="20px" viewBox="0 0 20 20" version="1.1" xmlns="http://www.w3.org/2000/svg" xmlns:xlink="http://www.w3.org/1999/xlink">
    <!-- Generator: Sketch 49.3 (51167) - http://www.bohemiancoding.com/sketch -->
    <title>Iconos/Alerts/Alerta circular</title>
    <desc>Created with Sketch.</desc>
    <defs>
        <path d="M9.9998,12.8516 C9.6148,12.8516 9.3028,12.5396 9.3028,12.1536 L9.3028,4.8896 C9.3028,4.5036 9.6148,4.1916 9.9998,4.1916 C10.3858,4.1916 10.6978,4.5036 10.6978,4.8896 L10.6978,12.1536 C10.6978,12.5396 10.3858,12.8516 9.9998,12.8516 Z M10.0222,14.1397 C10.4822,14.1397 10.8682,14.5257 10.8682,14.9857 C10.8682,15.2157 10.7712,15.4267 10.6182,15.5807 C10.4632,15.7347 10.2522,15.8307 10.0222,15.8307 C9.7932,15.8307 9.5812,15.7347 9.4272,15.5807 C9.2732,15.4267 9.1762,15.2157 9.1762,14.9857 C9.1762,14.5257 9.5632,14.1397 10.0222,14.1397 Z M9.9998,18.6045 C5.2558,18.6045 1.3958,14.7445 1.3958,10.0005 C1.3958,5.2555 5.2558,1.3955 9.9998,1.3955 C14.7448,1.3955 18.6038,5.2555 18.6038,10.0005 C18.6038,14.7445 14.7448,18.6045 9.9998,18.6045 M9.9998,0.0005 C4.4858,0.0005 -0.0002,4.4855 -0.0002,10.0005 C-0.0002,15.5145 4.4858,20.0005 9.9998,20.0005 C15.5148,20.0005 19.9998,15.5145 19.9998,10.0005 C19.9998,4.4855 15.5148,0.0005 9.9998,0.0005" id="path-1"></path>
    </defs>
    <g id="Iconos/Alerts/Alerta-circular" stroke="none" stroke-width="1" fill="none" fill-rule="evenodd">
        <mask id="mask-2" fill="white">
            <use xlink:href="#path-1"></use>
        </mask>
        <use id="Mask" fill="#535353" xlink:href="#path-1"></use>
        <g id="Color/Gris/2-Dark" mask="url(#mask-2)" fill="#535353">
            <g transform="translate(-1.000000, 0.000000)" id="Rectangle">
                <rect x="0" y="0" width="22" height="22"></rect>
            </g>
        </g>
    </g>
</svg>