<?xml version="1.0" encoding="UTF-8"?>
<svg width="20px" height="20px" viewBox="0 0 20 20" version="1.1" xmlns="http://www.w3.org/2000/svg" xmlns:xlink="http://www.w3.org/1999/xlink">
    <!-- Generator: Sketch 49.3 (51167) - http://www.bohemiancoding.com/sketch -->
    <title>Iconos/Alerts/Ayuda</title>
    <desc>Created with Sketch.</desc>
    <defs>
        <path d="M10.0223,14.1398 C10.4823,14.1398 10.8683,14.5258 10.8683,14.9858 C10.8683,15.2148 10.7713,15.4268 10.6183,15.5808 C10.4633,15.7348 10.2523,15.8308 10.0223,15.8308 C9.7933,15.8308 9.5813,15.7348 9.4273,15.5808 C9.2733,15.4268 9.1763,15.2148 9.1763,14.9858 C9.1763,14.5258 9.5633,14.1398 10.0223,14.1398 Z M9.9998,4.1915 C11.7678,4.1915 13.2068,5.6295 13.2068,7.3985 C13.2068,8.4705 12.6748,9.4675 11.7818,10.0645 L11.6258,10.1655 C11.1558,10.4645 10.6978,10.7945 10.6978,11.2455 L10.6978,12.1535 C10.6978,12.5395 10.3858,12.8515 9.9998,12.8515 C9.6148,12.8515 9.3028,12.5395 9.3028,12.1535 L9.3028,11.2455 C9.3028,9.9905 10.3658,9.3145 10.8768,8.9885 L11.0068,8.9055 C11.5108,8.5675 11.8118,8.0045 11.8118,7.3985 C11.8118,6.3995 10.9988,5.5875 9.9998,5.5875 C9.0018,5.5875 8.1878,6.3995 8.1878,7.3985 C8.1878,7.7835 7.8758,8.0955 7.4908,8.0955 C7.1048,8.0955 6.7928,7.7835 6.7928,7.3985 C6.7928,5.6295 8.2318,4.1915 9.9998,4.1915 Z M9.9998,18.6046 C5.2558,18.6046 1.3958,14.7446 1.3958,10.0006 C1.3958,5.2556 5.2558,1.3956 9.9998,1.3956 C14.7448,1.3956 18.6038,5.2556 18.6038,10.0006 C18.6038,14.7446 14.7448,18.6046 9.9998,18.6046 M9.9998,0.0006 C4.4858,0.0006 -0.0002,4.4856 -0.0002,10.0006 C-0.0002,15.5146 4.4858,20.0006 9.9998,20.0006 C15.5148,20.0006 19.9998,15.5146 19.9998,10.0006 C19.9998,4.4856 15.5148,0.0006 9.9998,0.0006" id="path-1"></path>
    </defs>
    <g id="Iconos/Alerts/Ayuda" stroke="none" stroke-width="1" fill="none" fill-rule="evenodd">
        <mask id="mask-2" fill="white">
            <use xlink:href="#path-1"></use>
        </mask>
        <use id="Mask" fill="#535353" xlink:href="#path-1"></use>
        <g id="Color/Gris/2-Dark" mask="url(#mask-2)" fill="#535353">
            <g transform="translate(-1.000000, -1.000000)" id="Rectangle">
                <rect x="0" y="0" width="22" height="22"></rect>
            </g>
        </g>
    </g>
</svg>