<?xml version="1.0" encoding="UTF-8"?>
<svg width="20px" height="20px" viewBox="0 0 20 20" version="1.1" xmlns="http://www.w3.org/2000/svg" xmlns:xlink="http://www.w3.org/1999/xlink">
    <!-- Generator: Sketch 49.3 (51167) - http://www.bohemiancoding.com/sketch -->
    <title>Iconos/Alerts/Ayuda filled</title>
    <desc>Created with Sketch.</desc>
    <defs>
        <path d="M11.9158,10.0693 L11.7478,10.1783 C11.2428,10.4993 10.7498,10.8543 10.7498,11.3393 L10.7498,12.3153 C10.7498,12.7293 10.4138,13.0653 9.9998,13.0653 C9.5858,13.0653 9.2498,12.7293 9.2498,12.3153 L9.2498,11.3393 C9.2498,9.9893 10.3938,9.2623 10.9418,8.9133 L11.0818,8.8233 C11.6238,8.4603 11.9468,7.8553 11.9468,7.2033 C11.9468,6.1293 11.0728,5.2563 9.9998,5.2563 C8.9268,5.2563 8.0528,6.1293 8.0528,7.2033 C8.0528,7.6173 7.7168,7.9533 7.3028,7.9533 C6.8888,7.9533 6.5528,7.6173 6.5528,7.2033 C6.5528,5.3023 8.0998,3.7563 9.9998,3.7563 C11.8998,3.7563 13.4468,5.3023 13.4468,7.2033 C13.4468,8.3563 12.8748,9.4273 11.9158,10.0693 M10.0238,16.2683 C9.5298,16.2683 9.1148,15.8533 9.1148,15.3593 C9.1148,14.8653 9.5298,14.4503 10.0238,14.4503 C10.5188,14.4503 10.9328,14.8653 10.9328,15.3593 C10.9328,15.8533 10.5188,16.2683 10.0238,16.2683 M9.9998,0.0003 C4.4778,0.0003 -0.0002,4.4773 -0.0002,10.0003 C-0.0002,15.5233 4.4778,20.0003 9.9998,20.0003 C15.5228,20.0003 19.9998,15.5233 19.9998,10.0003 C19.9998,4.4773 15.5228,0.0003 9.9998,0.0003" id="path-1"></path>
    </defs>
    <g id="Iconos/Alerts/Ayuda-filled" stroke="none" stroke-width="1" fill="none" fill-rule="evenodd">
        <mask id="mask-2" fill="white">
            <use xlink:href="#path-1"></use>
        </mask>
        <use id="Mask" fill="#535353" xlink:href="#path-1"></use>
        <g id="Color/Gris/2-Dark" mask="url(#mask-2)" fill="#535353">
            <rect id="Rectangle" x="0" y="0" width="22" height="22"></rect>
        </g>
    </g>
</svg>