<?xml version="1.0" encoding="UTF-8"?>
<svg width="20px" height="20px" viewBox="0 0 20 20" version="1.1" xmlns="http://www.w3.org/2000/svg" xmlns:xlink="http://www.w3.org/1999/xlink">
    <!-- Generator: Sketch 49.3 (51167) - http://www.bohemiancoding.com/sketch -->
    <title>Iconos/Estados/Vencido</title>
    <desc>Created with Sketch.</desc>
    <defs>
        <path d="M9.9995,-0.0001 C15.5145,-0.0001 19.9995,4.4859 19.9995,9.9999 C19.9995,15.5149 15.5145,19.9999 9.9995,19.9999 C4.4855,19.9999 -0.0005,15.5149 -0.0005,9.9999 C-0.0005,4.4859 4.4855,-0.0001 9.9995,-0.0001 Z M14.7477914,10.3992855 C15.1771087,8.06611676 14.0387696,5.72496105 11.9385679,4.62171915 C9.83836628,3.51847725 7.26469835,3.90970514 5.58720174,5.58720174 C3.90970514,7.26469835 3.51847725,9.83836628 4.62171915,11.9385679 C5.72496105,14.0387696 8.06611676,15.1771087 10.3992855,14.7477914 C11.1269789,15.7253964 12.3589262,16.1874304 13.5500169,15.929453 C14.7411076,15.6714757 15.6714757,14.7411076 15.929453,13.5500169 C16.1874304,12.3589262 15.7253964,11.1269789 14.7477914,10.3992855 Z M9.41903767,14.0786932 C6.84558099,14.0786932 4.75938217,11.9924943 4.75938217,9.41903767 C4.75938217,6.84558099 6.84558099,4.75938217 9.41903767,4.75938217 C11.9924943,4.75938217 14.0786932,6.84558099 14.0786932,9.41903767 C14.0796303,9.61262786 14.0686476,9.80609212 14.0458074,9.99833252 C12.8888061,9.52808511 11.562688,9.79645772 10.6795728,10.6795728 C9.79645772,11.562688 9.52808511,12.8888061 9.99833252,14.0458074 C9.80609296,14.0686572 9.61262811,14.0796399 9.41903767,14.0786932 Z M12.8872177,15.2372829 C11.9365901,15.2372827 11.0795911,14.6645708 10.7159199,13.7862563 C10.3522487,12.9079419 10.5535423,11.8970378 11.2259185,11.2250235 C11.8982947,10.5530092 12.909307,10.3522599 13.7874255,10.7164039 C14.665544,11.0805479 15.2377945,11.937855 15.2372829,12.8884826 C15.2351937,14.1848228 14.1848228,15.2351937 12.8884826,15.2372829 L12.8872177,15.2372829 Z M9.19535092,5 L9.19535092,9.03100775 L7,9.03100775 L7,10 L10,10 L10,5 L9.19535092,5 Z M12.4500122,11.5 L12.4500122,13 L13.4500122,13 L13.4500122,11.5 L12.4500122,11.5 Z M12.4500122,13.5 L12.4500122,14.5 L13.4500122,14.5 L13.4500122,13.5 L12.4500122,13.5 Z" id="path-1"></path>
    </defs>
    <g id="Iconos/Estados/Vencido" stroke="none" stroke-width="1" fill="none" fill-rule="evenodd">
        <mask id="mask-2" fill="white">
            <use xlink:href="#path-1"></use>
        </mask>
        <use id="Combined-Shape" fill="#535353" xlink:href="#path-1"></use>
        <g id="Color/Gris/2-Dark" mask="url(#mask-2)" fill="#535353">
            <g transform="translate(-1.000000, -1.000000)" id="Rectangle">
                <rect x="0" y="0" width="22" height="22"></rect>
            </g>
        </g>
        <g id="noun_1241402_cc" mask="url(#mask-2)">
            <g transform="translate(4.000000, 4.000000)"></g>
        </g>
    </g>
</svg>