<?xml version="1.0" encoding="UTF-8"?>
<svg width="20px" height="20px" viewBox="0 0 20 20" version="1.1" xmlns="http://www.w3.org/2000/svg" xmlns:xlink="http://www.w3.org/1999/xlink">
    <!-- Generator: Sketch 49.3 (51167) - http://www.bohemiancoding.com/sketch -->
    <title>Iconos/Nav/Administración</title>
    <desc>Created with Sketch.</desc>
    <defs>
        <path d="M18.547,10.6201 L17.265,10.8331 C16.961,10.8841 16.734,11.1231 16.669,11.4261 C16.498,12.2231 16.179,13.0001 15.748,13.6761 C15.583,13.9341 15.573,14.2611 15.751,14.5121 L16.511,15.5861 L15.584,16.5121 L14.534,15.7741 C14.288,15.6011 13.967,15.6061 13.712,15.7641 C12.987,16.2141 12.226,16.5261 11.448,16.6931 C11.147,16.7581 10.91,16.9811 10.858,17.2851 C10.77,17.8071 10.645,18.5471 10.645,18.5471 L9.355,18.5471 L9.142,17.2881 C9.09,16.9841 8.852,16.7581 8.55,16.6931 C7.752,16.5221 6.975,16.2031 6.3,15.7721 C6.042,15.6071 5.716,15.5981 5.466,15.7741 L4.416,16.5121 L3.488,15.5841 L4.226,14.5341 C4.399,14.2881 4.394,13.9671 4.235,13.7111 C3.786,12.9871 3.474,12.2261 3.307,11.4481 C3.242,11.1471 3.019,10.9101 2.715,10.8581 C2.193,10.7701 1.453,10.6451 1.453,10.6451 L1.453,9.3551 L2.712,9.1421 C3.016,9.0911 3.243,8.8511 3.307,8.5501 C3.479,7.7521 3.796,6.9751 4.228,6.3001 C4.393,6.0421 4.402,5.7161 4.226,5.4661 L3.488,4.4161 L4.416,3.4881 L5.466,4.2261 C5.712,4.3991 6.033,4.3941 6.289,4.2361 C7.013,3.7861 7.774,3.4741 8.552,3.3071 C8.853,3.2421 9.09,3.0191 9.142,2.7151 C9.23,2.1931 9.355,1.4531 9.355,1.4531 L10.645,1.4531 L10.858,2.7121 C10.909,3.0161 11.148,3.2431 11.45,3.3081 C12.248,3.4781 13.024,3.7961 13.699,4.2271 C13.96,4.3941 14.289,4.4021 14.54,4.2221 L15.589,3.4691 L16.512,4.3921 L15.774,5.4421 C15.601,5.6881 15.606,6.0091 15.764,6.2651 C16.214,6.9881 16.526,7.7491 16.693,8.5271 C16.758,8.8281 16.981,9.0661 17.285,9.1181 C17.807,9.2061 18.547,9.3311 18.547,9.3311 L18.547,10.6201 Z M19.395,8.0011 L18.002,7.7661 C17.824,7.1251 17.567,6.4991 17.232,5.8941 L18.052,4.7281 C18.255,4.4391 18.221,4.0461 17.971,3.7961 L16.18,2.0041 C15.928,1.7531 15.531,1.7211 15.242,1.9281 L14.08,2.7631 C13.496,2.4361 12.862,2.1771 12.211,1.9981 L11.975,0.6051 C11.916,0.2561 11.614,0.0001 11.259,0.0001 L8.741,0.0001 C8.386,0.0001 8.084,0.2561 8.025,0.6051 L7.79,1.9981 C7.15,2.1761 6.523,2.4331 5.919,2.7681 L4.752,1.9481 C4.463,1.7451 4.07,1.7791 3.82,2.0291 L2.029,3.8211 C1.779,4.0701 1.745,4.4631 1.948,4.7521 L2.766,5.9151 C2.438,6.5001 2.178,7.1361 1.998,7.7891 L0.605,8.0251 C0.256,8.0841 0,8.3861 0,8.7411 L0,11.2591 C0,11.6141 0.256,11.9161 0.606,11.9751 L1.999,12.2111 C2.175,12.8501 2.433,13.4771 2.769,14.0811 L1.948,15.2481 C1.745,15.5371 1.779,15.9301 2.029,16.1801 L3.82,17.9711 C4.07,18.2211 4.463,18.2551 4.752,18.0521 L5.915,17.2341 C6.501,17.5621 7.135,17.8221 7.79,18.0021 L8.025,19.3941 C8.084,19.7441 8.386,20.0001 8.741,20.0001 L11.258,20.0001 C11.613,20.0001 11.916,19.7441 11.975,19.3941 L12.211,18.0011 C12.851,17.8241 13.477,17.5661 14.082,17.2311 L15.248,18.0521 C15.537,18.2551 15.93,18.2211 16.179,17.9711 L17.971,16.1801 C18.221,15.9291 18.255,15.5351 18.05,15.2461 L17.211,14.0591 C17.538,13.4741 17.798,12.8401 17.977,12.1871 L19.393,11.9521 C19.743,11.8931 20,11.5901 20,11.2351 L20,8.7171 C20,8.3621 19.744,8.0601 19.395,8.0011 Z M12.4655,10.6099 C12.2495,11.4979 11.5205,12.2259 10.6325,12.4419 C8.7425,12.8999 7.0755,11.2329 7.5345,9.3429 C7.7505,8.4549 8.4785,7.7259 9.3665,7.5099 C11.2575,7.0509 12.9245,8.7199 12.4655,10.6099 M11.0855,6.1249 C8.0495,5.3189 5.3435,8.0249 6.1485,11.0599 C6.5025,12.3939 7.5805,13.4719 8.9135,13.8269 C11.9495,14.6339 14.6575,11.9269 13.8515,8.8899 C13.4975,7.5569 12.4185,6.4789 11.0855,6.1249" id="path-1"></path>
    </defs>
    <g id="Iconos/Nav/Administración" stroke="none" stroke-width="1" fill="none" fill-rule="evenodd">
        <mask id="mask-2" fill="white">
            <use xlink:href="#path-1"></use>
        </mask>
        <use id="Mask" fill="#535353" xlink:href="#path-1"></use>
        <g id="Color/Gris/2-Dark" mask="url(#mask-2)" fill="#535353">
            <g transform="translate(-1.000000, -1.000000)" id="Rectangle">
                <rect x="0" y="0" width="22" height="22"></rect>
            </g>
        </g>
    </g>
</svg>