<?xml version="1.0" encoding="UTF-8"?>
<svg width="20px" height="20px" viewBox="0 0 20 20" version="1.1" xmlns="http://www.w3.org/2000/svg" xmlns:xlink="http://www.w3.org/1999/xlink">
    <!-- Generator: Sketch 49.3 (51167) - http://www.bohemiancoding.com/sketch -->
    <title>Iconos/Nav/Beneficios</title>
    <desc>Created with Sketch.</desc>
    <defs>
        <path d="M18.3364,8.5856 L8.5854,18.3376 C8.4994,18.4226 8.3574,18.4236 8.2724,18.3376 L1.5644,11.6296 C1.5114,11.5766 1.5004,11.5156 1.5004,11.4746 C1.5004,11.4326 1.5114,11.3716 1.5654,11.3176 L11.3174,1.5656 C11.3584,1.5246 11.4154,1.5016 11.4734,1.5016 L11.4754,1.5016 L18.1074,1.5776 C18.2284,1.5786 18.3234,1.6746 18.3254,1.7956 L18.4014,8.4266 C18.4014,8.4856 18.3784,8.5436 18.3364,8.5856 Z M19.8254,1.7786 C19.8154,0.8506 19.0514,0.0876 18.1244,0.0776 L11.4924,0.0016 C11.0404,-0.0164 10.5804,0.1796 10.2564,0.5056 L0.5044,10.2566 C0.1794,10.5826 0.0004,11.0146 0.0004,11.4746 C0.0004,11.9346 0.1794,12.3666 0.5044,12.6906 L7.2114,19.3986 C7.5364,19.7236 7.9684,19.9026 8.4284,19.9026 C8.8884,19.9026 9.3204,19.7236 9.6454,19.3986 L19.3964,9.6476 C19.7224,9.3216 19.9064,8.8706 19.9014,8.4096 L19.8254,1.7786 Z M14.2959,3.9294 C13.8329,4.3924 13.8329,5.1434 14.2959,5.6064 C14.7589,6.0694 15.5099,6.0694 15.9729,5.6064 C16.4359,5.1434 16.4359,4.3924 15.9729,3.9294 C15.5099,3.4664 14.7589,3.4664 14.2959,3.9294" id="path-1"></path>
    </defs>
    <g id="Iconos/Nav/Beneficios" stroke="none" stroke-width="1" fill="none" fill-rule="evenodd">
        <mask id="mask-2" fill="white">
            <use xlink:href="#path-1"></use>
        </mask>
        <use id="Mask" fill="#535353" xlink:href="#path-1"></use>
        <g id="Color/Gris/2-Dark" mask="url(#mask-2)" fill="#535353">
            <rect id="Rectangle" x="0" y="0" width="20" height="21"></rect>
        </g>
    </g>
</svg>