<?xml version="1.0" encoding="UTF-8"?>
<svg width="20px" height="20px" viewBox="0 0 20 20" version="1.1" xmlns="http://www.w3.org/2000/svg" xmlns:xlink="http://www.w3.org/1999/xlink">
    <!-- Generator: Sketch 49.3 (51167) - http://www.bohemiancoding.com/sketch -->
    <title>Iconos/Nav/Call</title>
    <desc>Created with Sketch.</desc>
    <defs>
        <polygon id="path-1" points="0 0.0003 20 0.0003 20 20 0 20"></polygon>
    </defs>
    <g id="Iconos/Nav/Call" stroke="none" stroke-width="1" fill="none" fill-rule="evenodd">
        <g id="Page-1">
            <mask id="mask-2" fill="white">
                <use xlink:href="#path-1"></use>
            </mask>
            <g id="Clip-2"></g>
            <path d="M18.481,13.5283 C18.481,14.2033 17.934,14.7513 17.263,14.7513 C16.591,14.7513 16.045,14.2033 16.045,13.5283 L16.045,11.2123 C16.045,10.5383 16.591,9.9903 17.263,9.9903 C17.934,9.9903 18.481,10.5383 18.481,11.2123 L18.481,13.5283 Z M3.955,11.2123 L3.955,13.5283 C3.955,14.2033 3.409,14.7513 2.737,14.7513 C2.066,14.7513 1.519,14.2033 1.519,13.5283 L1.519,11.2123 C1.519,10.5383 2.066,9.9903 2.737,9.9903 C3.409,9.9903 3.955,10.5383 3.955,11.2123 Z M19.185,9.2613 C19.186,9.2493 19.192,9.2393 19.192,9.2273 C19.192,4.1393 15.069,0.0003 10,0.0003 C4.931,0.0003 0.808,4.1393 0.808,9.2273 C0.808,9.2393 0.814,9.2493 0.815,9.2613 C0.313,9.7593 0,10.4493 0,11.2123 L0,13.5283 C0,15.0433 1.228,16.2763 2.737,16.2763 C4.247,16.2763 5.473,15.0433 5.473,13.5283 L5.473,11.2123 C5.473,9.6973 4.247,8.4653 2.737,8.4653 C2.609,8.4653 2.487,8.4863 2.364,8.5033 C2.729,4.5943 6.012,1.5253 10,1.5253 C13.988,1.5253 17.271,4.5943 17.636,8.5033 C17.513,8.4863 17.391,8.4653 17.263,8.4653 C15.753,8.4653 14.527,9.6973 14.527,11.2123 L14.527,13.5283 C14.527,14.4433 14.978,15.2493 15.665,15.7483 L12.11,17.9013 C12.026,17.5703 11.728,17.3263 11.374,17.3263 L8.601,17.3263 C8.182,17.3263 7.841,17.6683 7.841,18.0893 L7.841,19.2373 C7.841,19.6583 8.182,20.0003 8.601,20.0003 L11.374,20.0003 C11.511,20.0003 11.647,19.9623 11.766,19.8903 L17.84,16.2123 C19.073,15.9443 20,14.8443 20,13.5283 L20,11.2123 C20,10.4493 19.687,9.7593 19.185,9.2613 Z" id="Fill-1" fill="#535353" mask="url(#mask-2)"></path>
        </g>
    </g>
</svg>