<?xml version="1.0" encoding="UTF-8"?>
<svg width="20px" height="20px" viewBox="0 0 20 20" version="1.1" xmlns="http://www.w3.org/2000/svg" xmlns:xlink="http://www.w3.org/1999/xlink">
    <!-- Generator: Sketch 49.3 (51167) - http://www.bohemiancoding.com/sketch -->
    <title>Iconos/Nav/Cobros</title>
    <desc>Created with Sketch.</desc>
    <defs>
        <path d="M18.5885,10.5789 C18.5885,10.7069 18.4845,10.8119 18.3555,10.8119 L16.9385,10.8119 C17.1835,10.0679 17.8015,9.4879 18.5885,9.2659 L18.5885,10.2329 L18.5885,10.5789 Z M18.3555,13.4389 L9.6695,13.4389 L9.6695,12.2069 L18.3555,12.2069 C18.4355,12.2069 18.5115,12.1949 18.5885,12.1829 L18.5885,13.2159 C18.5885,13.3389 18.4845,13.4389 18.3555,13.4389 Z M7.6175,6.1029 C7.6175,4.8639 8.6825,3.8549 9.9915,3.8549 C11.3005,3.8549 12.3655,4.8639 12.3655,6.1029 C12.3655,7.3429 11.3005,8.3519 9.9915,8.3519 C8.6825,8.3519 7.6175,7.3429 7.6175,6.1029 Z M5.2565,10.8119 L4.0485,10.8119 C3.7645,9.5579 2.7195,8.5709 1.3955,8.3099 L1.3955,3.9029 C2.6965,3.6339 3.7215,2.6479 4.0055,1.3949 L15.9355,1.3949 C16.2195,2.6479 17.2635,3.6359 18.5885,3.8959 L18.5885,8.2989 C17.2805,8.5629 16.2505,9.5539 15.9655,10.8119 L9.6675,10.8119 C9.6635,10.3969 9.5405,10.0139 9.3385,9.6829 C9.5515,9.7199 9.7675,9.7469 9.9915,9.7469 C12.0705,9.7469 13.7615,8.1119 13.7615,6.1029 C13.7615,4.0939 12.0705,2.4599 9.9915,2.4599 C7.9135,2.4599 6.2225,4.0939 6.2225,6.1029 C6.2225,7.0899 6.6335,7.9839 7.2955,8.6409 C6.1635,8.7269 5.2675,9.6609 5.2565,10.8119 Z M3.9725,13.4389 L3.9685,13.4389 L1.6285,13.4389 C1.4995,13.4389 1.3955,13.3389 1.3955,13.2159 L1.3955,12.1829 C1.4715,12.1949 1.5485,12.2069 1.6285,12.2069 L5.2555,12.2069 L5.2555,13.4389 L3.9725,13.4389 Z M1.3955,9.2759 C2.1975,9.4939 2.8265,10.0719 3.0745,10.8119 L1.6285,10.8119 C1.4995,10.8119 1.3955,10.7069 1.3955,10.5789 L1.3955,10.2329 L1.3955,9.2759 Z M1.6285,1.3949 L3.0325,1.3949 C2.7885,2.1339 2.1765,2.7109 1.3955,2.9369 L1.3955,1.6279 C1.3955,1.4999 1.4995,1.3949 1.6285,1.3949 Z M18.5885,1.6279 L18.5885,2.9309 C17.7865,2.7129 17.1565,2.1359 16.9095,1.3949 L18.3555,1.3949 C18.4845,1.3949 18.5885,1.4999 18.5885,1.6279 Z M18.3555,-0.0001 L1.6285,-0.0001 C0.7305,-0.0001 0.0005,0.7299 0.0005,1.6279 L0.0005,10.2329 L0.0005,10.5789 L0.0005,13.2159 C0.0005,14.1079 0.7305,14.8339 1.6285,14.8339 L3.2775,14.8339 L3.2855,16.5539 C3.2865,16.8889 3.3895,17.2119 3.5835,17.4869 L5.1505,19.7049 C5.2865,19.8969 5.5025,19.9999 5.7205,19.9999 C5.8605,19.9999 6.0005,19.9589 6.1225,19.8719 C6.4375,19.6499 6.5125,19.2139 6.2905,18.8999 L4.7235,16.6829 C4.6955,16.6439 4.6805,16.5969 4.6805,16.5489 L4.6725,14.8339 L5.2555,14.8339 L5.2555,16.3369 C5.2555,16.5939 5.4635,16.8019 5.7205,16.8019 C5.9775,16.8019 6.1855,16.5939 6.1855,16.3369 L6.1855,10.8309 C6.1855,10.1269 6.7585,9.5539 7.4625,9.5539 C8.1655,9.5539 8.7385,10.1269 8.7385,10.8309 L8.7385,14.2319 C8.7385,14.3549 8.7875,14.4739 8.8755,14.5609 L11.6635,17.3509 C11.7545,17.4419 11.8735,17.4869 11.9925,17.4869 C12.1115,17.4869 12.2305,17.4419 12.3215,17.3509 C12.5035,17.1689 12.5035,16.8749 12.3215,16.6929 L10.4635,14.8339 L15.3145,14.8339 L15.3145,19.3029 C15.3145,19.6869 15.6265,19.9999 16.0115,19.9999 C16.3965,19.9999 16.7095,19.6869 16.7095,19.3029 L16.7095,14.8339 L18.3555,14.8339 C19.2535,14.8339 19.9835,14.1079 19.9835,13.2159 L19.9835,10.5789 L19.9835,10.2329 L19.9835,1.6279 C19.9835,0.7299 19.2535,-0.0001 18.3555,-0.0001 Z" id="path-1"></path>
    </defs>
    <g id="Iconos/Nav/Cobros" stroke="none" stroke-width="1" fill="none" fill-rule="evenodd">
        <mask id="mask-2" fill="white">
            <use xlink:href="#path-1"></use>
        </mask>
        <use id="Mask" fill="#535353" xlink:href="#path-1"></use>
        <g id="Color/Gris/2-Dark" mask="url(#mask-2)" fill="#535353">
            <g transform="translate(-1.000000, -1.000000)" id="Rectangle">
                <rect x="0" y="0" width="22" height="22"></rect>
            </g>
        </g>
    </g>
</svg>