<?xml version="1.0" encoding="UTF-8"?>
<svg width="20px" height="20px" viewBox="0 0 20 20" version="1.1" xmlns="http://www.w3.org/2000/svg" xmlns:xlink="http://www.w3.org/1999/xlink">
    <!-- Generator: Sketch 49.3 (51167) - http://www.bohemiancoding.com/sketch -->
    <title>Iconos/Nav/Comercio</title>
    <desc>Created with Sketch.</desc>
    <defs>
        <path d="M12.52,18.2266 C13.419,17.3056 14.16,16.2576 14.715,15.1166 L16.902,15.1166 C15.819,16.5736 14.294,17.6816 12.52,18.2266 Z M3.098,15.1166 L5.108,15.1166 C5.64,16.2146 6.342,17.2276 7.193,18.1246 C5.541,17.5526 4.121,16.4936 3.098,15.1166 Z M7.255,1.8516 C6.387,2.7536 5.668,3.7736 5.126,4.8836 L3.098,4.8836 C4.134,3.4896 5.577,2.4186 7.255,1.8516 Z M16.902,4.8836 L14.715,4.8836 C14.161,3.7426 13.419,2.6946 12.52,1.7736 C14.294,2.3186 15.819,3.4266 16.902,4.8836 Z M15.886,9.5346 C15.834,8.2506 15.586,6.9946 15.133,5.8136 L17.511,5.8136 C18.133,6.9256 18.509,8.1896 18.581,9.5346 L15.886,9.5346 Z M15.886,10.4646 L18.581,10.4646 C18.509,11.8096 18.133,13.0736 17.511,14.1856 L15.135,14.1856 C15.587,13.0056 15.834,11.7486 15.886,10.4646 Z M10.465,14.1856 L10.465,10.4646 L14.956,10.4646 C14.899,11.7576 14.612,13.0136 14.116,14.1856 L10.465,14.1856 Z M4.875,10.4646 L9.535,10.4646 L9.535,14.1856 L5.708,14.1856 C5.214,13.0126 4.93,11.7566 4.875,10.4646 Z M3.948,9.5346 L1.419,9.5346 C1.491,8.1896 1.867,6.9256 2.489,5.8136 L4.707,5.8136 C4.251,6.9936 4.002,8.2506 3.948,9.5346 Z M9.535,5.8136 L9.535,9.5346 L4.878,9.5346 C4.937,8.2426 5.227,6.9866 5.725,5.8136 L9.535,5.8136 Z M14.116,5.8136 C14.612,6.9866 14.899,8.2426 14.956,9.5346 L10.465,9.5346 L10.465,5.8136 L14.116,5.8136 Z M13.68,4.8836 L10.465,4.8836 L10.465,1.4186 C10.561,1.4236 10.658,1.4256 10.753,1.4336 C11.97,2.3856 12.966,3.5596 13.68,4.8836 Z M9.093,1.4446 C9.238,1.4286 9.387,1.4266 9.535,1.4186 L9.535,4.8836 L6.164,4.8836 C6.878,3.5626 7.875,2.3936 9.093,1.4446 Z M1.419,10.4646 L3.945,10.4646 C3.995,11.7486 4.239,13.0056 4.69,14.1856 L2.489,14.1856 C1.867,13.0736 1.491,11.8096 1.419,10.4646 Z M6.141,15.1166 L9.535,15.1166 L9.535,18.5806 C9.365,18.5716 9.196,18.5646 9.029,18.5456 C7.829,17.5956 6.845,16.4306 6.141,15.1166 Z M10.751,18.5666 C10.657,18.5746 10.561,18.5756 10.465,18.5806 L10.465,15.1166 L13.681,15.1166 C12.968,16.4416 11.97,17.6136 10.751,18.5666 Z M10,-0.0004 C4.486,-0.0004 0,4.4856 0,9.9996 C0,15.5146 4.486,19.9996 10,19.9996 C15.514,19.9996 20,15.5146 20,9.9996 C20,4.4856 15.514,-0.0004 10,-0.0004 Z" id="path-1"></path>
    </defs>
    <g id="Iconos/Nav/Comercio" stroke="none" stroke-width="1" fill="none" fill-rule="evenodd">
        <mask id="mask-2" fill="white">
            <use xlink:href="#path-1"></use>
        </mask>
        <use id="Mask" fill="#535353" xlink:href="#path-1"></use>
        <g id="Color/Gris/2-Dark" mask="url(#mask-2)" fill="#535353">
            <g transform="translate(-1.000000, -1.000000)" id="Rectangle">
                <rect x="0" y="0" width="22" height="22"></rect>
            </g>
        </g>
    </g>
</svg>