<?xml version="1.0" encoding="UTF-8"?>
<svg width="20px" height="20px" viewBox="0 0 20 20" version="1.1" xmlns="http://www.w3.org/2000/svg" xmlns:xlink="http://www.w3.org/1999/xlink">
    <!-- Generator: Sketch 49.3 (51167) - http://www.bohemiancoding.com/sketch -->
    <title>Iconos/Nav/Comisiones</title>
    <desc>Created with Sketch.</desc>
    <defs>
        <path d="M16.3188,7.6738 L12.1988,7.6738 C11.7768,7.6738 11.4358,8.0178 11.4358,8.4428 C11.4358,8.8668 11.7768,9.2108 12.1988,9.2108 L16.3188,9.2108 C16.7398,9.2108 17.0818,8.8668 17.0818,8.4428 C17.0818,8.0178 16.7398,7.6738 16.3188,7.6738 M14.2588,11.2197 L12.1988,11.2197 C11.7778,11.2197 11.4358,11.5637 11.4358,11.9887 C11.4358,12.4127 11.7778,12.7567 12.1988,12.7567 L14.2588,12.7567 C14.6798,12.7567 15.0218,12.4127 15.0218,11.9887 C15.0218,11.5637 14.6798,11.2197 14.2588,11.2197 M7.8008,3.6968 L3.6808,3.6968 C3.2588,3.6968 2.9178,4.0408 2.9178,4.4658 C2.9178,4.8898 3.2588,5.2338 3.6808,5.2338 L7.8008,5.2338 C8.2218,5.2338 8.5638,4.8898 8.5638,4.4658 C8.5638,4.0408 8.2218,3.6968 7.8008,3.6968 M5.7407,7.2427 L3.6807,7.2427 C3.2597,7.2427 2.9177,7.5867 2.9177,8.0117 C2.9177,8.4357 3.2597,8.7797 3.6807,8.7797 L5.7407,8.7797 C6.1617,8.7797 6.5037,8.4357 6.5037,8.0117 C6.5037,7.5867 6.1617,7.2427 5.7407,7.2427 M18.4741,18.2065 C18.4741,18.3475 18.3601,18.4625 18.2201,18.4625 L10.2981,18.4625 C10.1581,18.4625 10.0441,18.3475 10.0441,18.2065 L10.0441,5.7705 C10.0441,5.6295 10.1581,5.5145 10.2981,5.5145 L18.2201,5.5145 C18.3601,5.5145 18.4741,5.6295 18.4741,5.7705 L18.4741,18.2065 Z M1.6791,14.4855 C1.5941,14.4855 1.5261,14.4155 1.5261,14.3305 L1.5261,1.6915 C1.5261,1.6065 1.5941,1.5375 1.6791,1.5375 L9.8031,1.5375 C9.8871,1.5375 9.9561,1.6065 9.9561,1.6915 L9.9561,4.0115 C9.1381,4.1735 8.5181,4.8995 8.5181,5.7705 L8.5181,14.4855 L1.6791,14.4855 Z M18.2201,3.9775 L11.4821,3.9775 L11.4821,1.6915 C11.4821,0.7585 10.7281,-0.0005 9.8031,-0.0005 L1.6791,-0.0005 C0.7531,-0.0005 0.0001,0.7585 0.0001,1.6915 L0.0001,14.3305 C0.0001,15.2635 0.7531,16.0225 1.6791,16.0225 L8.5181,16.0225 L8.5181,18.2065 C8.5181,19.1955 9.3161,19.9995 10.2981,19.9995 L18.2201,19.9995 C19.2011,19.9995 20.0001,19.1955 20.0001,18.2065 L20.0001,5.7705 C20.0001,4.7815 19.2011,3.9775 18.2201,3.9775 Z" id="path-1"></path>
    </defs>
    <g id="Iconos/Nav/Comisiones" stroke="none" stroke-width="1" fill="none" fill-rule="evenodd">
        <mask id="mask-2" fill="white">
            <use xlink:href="#path-1"></use>
        </mask>
        <use id="Mask" fill="#535353" xlink:href="#path-1"></use>
        <g id="Color/Gris/2-Dark" mask="url(#mask-2)" fill="#535353">
            <rect id="Rectangle" x="0" y="0" width="20" height="21"></rect>
        </g>
    </g>
</svg>