<?xml version="1.0" encoding="UTF-8"?>
<svg width="20px" height="20px" viewBox="0 0 20 20" version="1.1" xmlns="http://www.w3.org/2000/svg" xmlns:xlink="http://www.w3.org/1999/xlink">
    <!-- Generator: Sketch 49.3 (51167) - http://www.bohemiancoding.com/sketch -->
    <title>Iconos/Nav/Cuentas</title>
    <desc>Created with Sketch.</desc>
    <defs>
        <path d="M18.93,9.10051572 L18.93,6.17427438 C18.924501,5.26039347 18.1963333,4.52251121 17.3,4.5225284 L15.92,4.5225284 L15.92,1.65746285 C15.9185693,1.11745828 15.6599058,0.611827694 15.2263919,0.301610201 C14.7928779,-0.00860729261 14.238566,-0.084732235 13.74,0.0974805302 L1.49,4.53272437 C0.650257586,4.60165017 0.0024837424,5.31531002 0,6.17427438 L0,18.3380581 C1.70936497e-15,19.2559232 0.729775858,20 1.63,20 L17.3,20 C18.2002241,20 18.93,19.2559232 18.93,18.3380581 L18.93,15.2792692 C19.5621581,15.0436175 19.987244,14.4360251 20,13.7498748 L20,10.6910859 C20.0124175,9.98252044 19.5827914,9.34387501 18.93,9.10051572 Z M18.61,13.7498748 C18.61,13.8793895 18.5070255,13.9843819 18.38,13.9843819 L15.38,13.9843819 C15.2529745,13.9843819 15.15,13.8793895 15.15,13.7498748 L15.15,10.6910859 C15.15,10.5615712 15.2529745,10.4565788 15.38,10.4565788 L18.38,10.4565788 C18.5070255,10.4565788 18.61,10.5615712 18.61,10.6910859 L18.61,13.7498748 Z M14.21,1.43315166 C14.2759146,1.39866731 14.3540854,1.39866731 14.42,1.43315166 C14.4826633,1.47692734 14.5200869,1.54942563 14.52,1.62687496 L14.5200002,4.48174455 L5.7,4.48174455 L14.21,1.43315166 Z M17.3,18.5725652 L1.63,18.5725652 C1.50297451,18.5725652 1.4,18.4675728 1.4,18.3380581 L1.4,6.17427438 C1.39437962,6.10862853 1.41610701,6.04360072 1.45986451,5.99510618 C1.503622,5.94661164 1.56537145,5.91912567 1.63,5.91937531 L17.3,5.91937531 C17.3609998,5.91937531 17.4195012,5.94408225 17.4626346,5.98806087 C17.5057679,6.03203949 17.53,6.0916873 17.53,6.15388246 L17.53,8.97816417 L15.35,8.97816417 C14.4497759,8.97816417 13.72,9.72224092 13.72,10.6401061 L13.72,13.698895 C13.72,14.6167602 14.4497759,15.3608369 15.35,15.3608369 L17.53,15.3608369 L17.53,18.2870782 C17.5454034,18.3574969 17.5281578,18.4312252 17.4832423,18.4869764 C17.4383268,18.5427277 17.3707417,18.5742953 17.3,18.5725652 Z" id="path-1"></path>
    </defs>
    <g id="Iconos/Nav/Cuentas" stroke="none" stroke-width="1" fill="none" fill-rule="evenodd">
        <mask id="mask-2" fill="white">
            <use xlink:href="#path-1"></use>
        </mask>
        <use id="Mask" fill="#535353" fill-rule="nonzero" xlink:href="#path-1"></use>
        <g id="Color/Gris/2-Dark" mask="url(#mask-2)" fill="#535353">
            <g transform="translate(-1.000000, -1.000000)" id="Rectangle">
                <rect x="0" y="0" width="22" height="22"></rect>
            </g>
        </g>
    </g>
</svg>