<?xml version="1.0" encoding="UTF-8"?>
<svg width="20px" height="20px" viewBox="0 0 20 20" version="1.1" xmlns="http://www.w3.org/2000/svg" xmlns:xlink="http://www.w3.org/1999/xlink">
    <!-- Generator: Sketch 49.3 (51167) - http://www.bohemiancoding.com/sketch -->
    <title>Iconos/Nav/Financiacion</title>
    <desc>Created with Sketch.</desc>
    <defs>
        <path d="M18.6034,10.5879 C18.6034,10.7159 18.4994,10.8199 18.3714,10.8199 L16.9524,10.8199 C17.1984,10.0759 17.8164,9.4959 18.6034,9.2729 L18.6034,10.2409 L18.6034,10.5879 Z M18.6034,13.2269 C18.6034,13.3499 18.4994,13.4499 18.3714,13.4499 L1.6294,13.4499 C1.5004,13.4499 1.3964,13.3499 1.3964,13.2269 L1.3964,12.8809 L1.3964,12.1929 C1.4734,12.2049 1.5494,12.2169 1.6294,12.2169 L18.3714,12.2169 C18.4504,12.2169 18.5264,12.2049 18.6034,12.1929 L18.6034,12.8809 L18.6034,13.2269 Z M18.3714,18.6199 L1.6294,18.6199 C1.5004,18.6199 1.3964,18.5199 1.3964,18.3969 L1.3964,17.4629 C1.4734,17.4739 1.5494,17.4859 1.6294,17.4859 L18.3714,17.4859 C18.4504,17.4859 18.5264,17.4739 18.6034,17.4629 L18.6034,18.3969 C18.6034,18.5199 18.4994,18.6199 18.3714,18.6199 Z M1.3964,14.8229 C1.4734,14.8339 1.5494,14.8459 1.6294,14.8459 L18.3714,14.8459 C18.4504,14.8459 18.5264,14.8339 18.6034,14.8229 L18.6034,15.8669 C18.6034,15.9899 18.4994,16.0899 18.3714,16.0899 L1.6294,16.0899 C1.5004,16.0899 1.3964,15.9899 1.3964,15.8669 L1.3964,14.8229 Z M1.3964,9.2829 C2.1994,9.5019 2.8294,10.0799 3.0774,10.8199 L1.6294,10.8199 C1.5004,10.8199 1.3964,10.7159 1.3964,10.5879 L1.3964,10.2409 L1.3964,9.2829 Z M1.6294,1.3969 L3.0354,1.3969 C2.7904,2.1359 2.1784,2.7129 1.3964,2.9389 L1.3964,1.6289 C1.3964,1.5009 1.5004,1.3969 1.6294,1.3969 Z M18.6034,1.6289 L18.6034,2.9339 C17.8014,2.7149 17.1714,2.1369 16.9234,1.3969 L18.3714,1.3969 C18.4994,1.3969 18.6034,1.5009 18.6034,1.6289 Z M18.6034,8.3059 C17.2944,8.5699 16.2634,9.5619 15.9784,10.8199 L4.0524,10.8199 C3.7674,9.5669 2.7224,8.5779 1.3964,8.3169 L1.3964,3.9059 C2.6994,3.6369 3.7254,2.6499 4.0094,1.3969 L15.9484,1.3969 C16.2324,2.6499 17.2784,3.6389 18.6034,3.8999 L18.6034,8.3059 Z M18.3714,-0.0001 L1.6294,-0.0001 C0.7304,-0.0001 -0.0006,0.7309 -0.0006,1.6289 L-0.0006,10.2409 L-0.0006,10.5879 L-0.0006,11.5049 L-0.0006,12.8809 L-0.0006,13.2269 L-0.0006,15.8669 L-0.0006,18.3969 C-0.0006,19.2899 0.7304,20.0169 1.6294,20.0169 L18.3714,20.0169 C19.2694,20.0169 19.9994,19.2899 19.9994,18.3969 L19.9994,15.8669 L19.9994,13.2269 L19.9994,12.8809 L19.9994,11.5049 L19.9994,10.5879 L19.9994,10.2409 L19.9994,1.6289 C19.9994,0.7309 19.2694,-0.0001 18.3714,-0.0001 Z M9.9999,8.3584 C8.6899,8.3584 7.6249,7.3484 7.6249,6.1084 C7.6249,4.8674 8.6899,3.8574 9.9999,3.8574 C11.3099,3.8574 12.3759,4.8674 12.3759,6.1084 C12.3759,7.3484 11.3099,8.3584 9.9999,8.3584 M9.9999,2.4614 C7.9199,2.4614 6.2279,4.0974 6.2279,6.1084 C6.2279,8.1194 7.9199,9.7544 9.9999,9.7544 C12.0799,9.7544 13.7729,8.1194 13.7729,6.1084 C13.7729,4.0974 12.0799,2.4614 9.9999,2.4614" id="path-1"></path>
    </defs>
    <g id="Iconos/Nav/Financiacion" stroke="none" stroke-width="1" fill="none" fill-rule="evenodd">
        <mask id="mask-2" fill="white">
            <use xlink:href="#path-1"></use>
        </mask>
        <use id="Mask" fill="#535353" xlink:href="#path-1"></use>
        <g id="Color/Gris/2-Dark" mask="url(#mask-2)" fill="#535353">
            <g transform="translate(-1.000000, -1.000000)" id="Rectangle">
                <rect x="0" y="0" width="22" height="22"></rect>
            </g>
        </g>
    </g>
</svg>