<?xml version="1.0" encoding="UTF-8"?>
<svg width="20px" height="20px" viewBox="0 0 20 20" version="1.1" xmlns="http://www.w3.org/2000/svg" xmlns:xlink="http://www.w3.org/1999/xlink">
    <!-- Generator: Sketch 49.3 (51167) - http://www.bohemiancoding.com/sketch -->
    <title>Iconos/Nav/Mas Productos</title>
    <desc>Created with Sketch.</desc>
    <defs>
        <path d="M18.1818182,4.41573872 L10.7090909,1.04326798 C10.3068782,0.864365219 9.84766729,0.864365219 9.44545455,1.04326798 L1.81818182,4.41573872 C1.62180839,4.50702071 1.44798361,4.64048316 1.30909091,4.80661808 L1.24545455,4.8702496 L1.14545455,5.00660286 C1.00186443,5.21956354 0.920053755,5.46812322 0.909090909,5.72473006 L0.909090909,14.1331814 C0.918825522,14.7155715 1.27722208,15.235207 1.81818182,15.4512629 L9.48181818,18.8691847 C9.56412782,18.9038001 9.64929874,18.9311744 9.73636364,18.9509967 C9.95672449,19.1375466 10.2796391,19.1375466 10.5,18.9509967 C10.5870528,18.9311301 10.6722199,18.903757 10.7545455,18.8691847 L18.1818182,15.4512629 C18.7197784,15.2364897 19.0775567,14.7213281 19.0909091,14.1422716 L19.0909091,5.72473006 C19.0775567,5.14567356 18.7197784,4.63051195 18.1818182,4.41573872 Z M10,2.19772562 L10.1181818,2.19772562 L10.2363636,2.19772562 L16.9090909,5.21567787 L14.8363636,6.12469963 L8.05454545,3.04311586 L10,2.19772562 Z M10.1181818,8.27908121 L3.11818182,5.21567787 L6.5,3.72488218 L13.3,6.83373661 L10.1181818,8.27908121 Z M2.33636364,14.2786248 C2.27040305,14.2542937 2.22438254,14.1941176 2.21818182,14.1240911 L2.21818182,6.18833116 L9.49090909,9.38808776 L9.49090909,17.4692912 L2.33636364,14.2786248 Z M17.7909091,14.3240759 L10.8,17.460201 L10.8,9.38808776 L14.1818182,7.82457033 L14.1818182,9.91532038 C14.1818182,10.2667476 14.4667279,10.5516356 14.8181818,10.5516356 C15.1696357,10.5516356 15.4545455,10.2667476 15.4545455,9.91532038 L15.4545455,7.27006705 L17.8181818,6.19742137 L17.8181818,14.1786325 C17.8119811,14.2486589 17.7659606,14.308835 17.7,14.3331662 L17.7909091,14.3240759 Z" id="path-1"></path>
    </defs>
    <g id="Iconos/Nav/Mas-Productos" stroke="none" stroke-width="1" fill="none" fill-rule="evenodd">
        <mask id="mask-2" fill="white">
            <use xlink:href="#path-1"></use>
        </mask>
        <use id="Mask" fill="#535353" fill-rule="nonzero" xlink:href="#path-1"></use>
        <g id="Color/Gris/2-Dark" mask="url(#mask-2)" fill="#535353">
            <g transform="translate(-1.000000, -1.000000)" id="Rectangle">
                <rect x="0" y="0" width="22" height="22"></rect>
            </g>
        </g>
    </g>
</svg>