<?xml version="1.0" encoding="UTF-8"?>
<svg width="20px" height="20px" viewBox="0 0 20 20" version="1.1" xmlns="http://www.w3.org/2000/svg" xmlns:xlink="http://www.w3.org/1999/xlink">
    <!-- Generator: Sketch 49.3 (51167) - http://www.bohemiancoding.com/sketch -->
    <title>Iconos/Nav/Pagos</title>
    <desc>Created with Sketch.</desc>
    <defs>
        <path d="M18.3799,15.118 L17.4689,15.118 C17.6709,14.617 18.0819,14.22 18.6019,14.026 L18.6019,14.924 C18.6019,15.031 18.5019,15.118 18.3799,15.118 M4.4879,14.924 L4.4879,14.091 C4.9519,14.298 5.3169,14.665 5.5019,15.118 L4.7099,15.118 C4.5879,15.118 4.4879,15.031 4.4879,14.924 M1.3989,11.889 L1.3989,11.047 C1.9309,11.235 2.3559,11.625 2.5649,12.121 L1.6309,12.121 C1.5029,12.121 1.3989,12.017 1.3989,11.889 M1.6309,4.398 L2.5309,4.398 C2.3269,4.893 1.9149,5.284 1.3989,5.476 L1.3989,4.631 C1.3989,4.503 1.5029,4.398 1.6309,4.398 M15.5119,4.631 L15.5119,5.472 C14.9789,5.285 14.5539,4.895 14.3459,4.398 L15.2789,4.398 C15.4069,4.398 15.5119,4.503 15.5119,4.631 M15.5119,11.039 L15.5119,11.889 C15.5119,12.017 15.4069,12.121 15.2789,12.121 L14.3689,12.121 C14.5739,11.623 14.9899,11.23 15.5119,11.039 M1.3989,10.08 L1.3989,6.445 C2.4309,6.19 3.2409,5.403 3.5049,4.398 L13.3699,4.398 C13.6349,5.404 14.4599,6.192 15.5119,6.44 L15.5119,10.071 C14.4739,10.322 13.6589,11.112 13.3949,12.121 L3.5409,12.121 C3.2749,11.116 2.4499,10.328 1.3989,10.08 M16.4949,15.118 L6.4779,15.118 C6.3099,14.466 5.9069,13.905 5.3579,13.52 L15.2789,13.52 C16.1779,13.52 16.9099,12.788 16.9099,11.889 L16.9099,8.292 C17.3079,8.844 17.9059,9.245 18.6019,9.416 L18.6019,13.057 C17.5659,13.313 16.7539,14.106 16.4949,15.118 M18.6019,7.588 L18.6019,8.449 C18.0859,8.26 17.6729,7.877 17.4669,7.394 L18.3799,7.394 C18.5019,7.394 18.6019,7.481 18.6019,7.588 M18.3799,5.996 L16.9099,5.996 L16.9099,4.631 C16.9099,3.732 16.1779,3 15.2789,3 L1.6309,3 C0.7319,3 -0.0001,3.732 -0.0001,4.631 L-0.0001,11.889 C-0.0001,12.788 0.7319,13.52 1.6309,13.52 L3.0899,13.52 L3.0899,14.924 C3.0899,15.802 3.8169,16.516 4.7099,16.516 L18.3799,16.516 C19.2729,16.516 19.9999,15.802 19.9999,14.924 L19.9999,7.588 C19.9999,6.71 19.2729,5.996 18.3799,5.996 M8.4551,10.0462 C7.4271,10.0462 6.5911,9.2442 6.5911,8.2592 C6.5911,7.2752 7.4271,6.4732 8.4551,6.4732 C9.4831,6.4732 10.3191,7.2752 10.3191,8.2592 C10.3191,9.2442 9.4831,10.0462 8.4551,10.0462 M8.4551,5.0752 C6.6571,5.0752 5.1931,6.5042 5.1931,8.2592 C5.1931,10.0152 6.6571,11.4442 8.4551,11.4442 C10.2541,11.4442 11.7171,10.0152 11.7171,8.2592 C11.7171,6.5042 10.2541,5.0752 8.4551,5.0752" id="path-1"></path>
    </defs>
    <g id="Iconos/Nav/Pagos" stroke="none" stroke-width="1" fill="none" fill-rule="evenodd">
        <mask id="mask-2" fill="white">
            <use xlink:href="#path-1"></use>
        </mask>
        <use id="Mask" fill="#535353" xlink:href="#path-1"></use>
        <g id="Color/Gris/2-Dark" mask="url(#mask-2)" fill="#535353">
            <g transform="translate(-1.000000, -1.000000)" id="Rectangle">
                <rect x="0" y="0" width="22" height="22"></rect>
            </g>
        </g>
    </g>
</svg>