<?xml version="1.0" encoding="UTF-8"?>
<svg width="20px" height="20px" viewBox="0 0 20 20" version="1.1" xmlns="http://www.w3.org/2000/svg" xmlns:xlink="http://www.w3.org/1999/xlink">
    <!-- Generator: Sketch 49.3 (51167) - http://www.bohemiancoding.com/sketch -->
    <title>Iconos/Nav/Phone</title>
    <desc>Created with Sketch.</desc>
    <defs>
        <path d="M1.52317786,3.68476888 C1.56467576,4.26774438 1.69827877,4.84263703 1.92297474,5.44683001 C2.17196217,6.11164435 2.5383583,6.83202829 3.01102955,7.58676433 C3.48471295,8.34453145 4.08592649,9.1588785 4.79645158,10.0106087 C5.5100131,10.862339 6.3470562,11.7686284 7.28328941,12.7042182 C8.21952261,13.6387977 9.12842793,14.4743622 9.98267747,15.1866633 C10.8328784,15.8939126 11.6496787,16.4940642 12.4097988,16.9689315 C13.1668825,17.4427886 13.8925898,17.8085375 14.5646534,18.0560748 C15.1861098,18.2844153 15.7761898,18.4248548 16.3197111,18.4723415 C16.3693062,18.4400101 16.4472412,18.3834302 16.5636378,18.2844153 C16.7357023,18.1399343 16.9381311,17.9509977 17.1729485,17.7165951 C17.4097902,17.4791614 17.633474,17.2336449 17.8429878,16.9790351 C18.034283,16.7456428 18.2205175,16.5102299 18.399667,16.2748169 C17.703312,15.7868149 17.0616127,15.3483203 16.4695084,14.9583228 C15.8601977,14.5572114 15.306555,14.1965143 14.807568,13.8772417 C14.7670822,13.8903764 14.7104021,13.9146249 14.632467,13.9550392 C14.6375278,13.9550392 14.5120219,14.0287952 12.7012963,14.8714322 C12.4624303,14.9835817 12.1810543,14.9623642 11.9593947,14.8148522 L11.4917842,14.5026522 C11.0322708,14.1874211 10.534296,13.7893407 10.0059568,13.3154837 C9.47862976,12.8456681 8.89361052,12.2889619 8.27012981,11.6645618 C7.64766125,11.0290477 7.10515206,10.451124 6.63956582,9.92472847 C6.16183385,9.38519828 5.77519483,8.89820662 5.45636947,8.4354635 L5.14564126,8.03839353 C4.96851606,7.81005304 4.9371396,7.50290477 5.06264545,7.24324324 L5.99685437,5.31750442 C6.03329156,5.24576913 6.05454658,5.19727204 6.06568016,5.15483708 L6.06669231,5.1497853 C5.61932466,4.44960849 5.19523632,3.79287699 4.79037872,3.17858045 C4.42094615,2.61682243 4.06467146,2.08537509 3.7205425,1.58423844 C3.44321504,1.7580197 3.21953122,1.93584238 3.00192026,2.12477898 C2.74685997,2.34503663 2.50192112,2.57337712 2.26204299,2.81081081 C2.03127415,3.04218237 1.8460518,3.24324324 1.71143665,3.41096236 C1.60718581,3.53826724 1.55151789,3.62717858 1.52317786,3.68476888 Z M16.4674841,19.2432432 L16.4765934,19.2432432 L16.4674841,19.2432432 Z M16.4391441,20 C16.4310469,20 16.4219376,19.9989896 16.4138405,19.9989896 L16.3227475,19.9929275 C15.6071617,19.9454408 14.8379323,19.7716595 14.0383385,19.4776459 C13.2680969,19.1937358 12.4502846,18.7815105 11.6051443,18.2541046 C10.7853077,17.7428644 9.91283954,17.1022986 9.01000708,16.3505936 C8.1203325,15.6079818 7.17802643,14.7421066 6.21041676,13.7751958 C5.24179494,12.8082849 4.37337538,11.8686537 3.63147383,10.981561 C2.8764144,10.0772922 2.2347151,9.20636524 1.72358237,8.39100783 C1.19726749,7.55039151 0.785324879,6.73705481 0.499900269,5.97625663 C0.200305643,5.16999242 0.0322897381,4.39605961 0.000913273842,3.67163425 C-0.00313530219,3.5807022 0.00597399388,3.42005557 0.0343140261,3.33316494 C0.144637723,3.0068199 0.298483612,2.74311695 0.531276734,2.45819651 C0.690183343,2.26016671 0.910830736,2.01869159 1.18917034,1.73882294 C1.45637636,1.47410962 1.72661881,1.22152059 2.0069827,0.980045466 C2.29139516,0.732508209 2.58997764,0.500126295 2.89362085,0.286941147 C3.04746674,0.182874463 3.20333691,0.11012882 3.37034067,0.0636524375 C3.50799226,0.0222278353 3.66689887,0 3.83187834,0 L4.03228285,0 C4.24280881,0 4.44321332,0.0868906289 4.58592563,0.240464764 L4.73977152,0.40414246 C4.76507512,0.431422076 4.78835443,0.460722405 4.80960945,0.490022733 C5.20940633,1.06794645 5.62640967,1.68628442 6.05859516,2.34604698 C6.49078065,3.00176812 6.94523331,3.70598636 7.42498957,4.45769134 L7.48369392,4.54963375 C7.56162901,4.67188684 7.60312691,4.8133367 7.60312691,4.95781763 L7.60312691,5.06794645 C7.60312691,5.23667593 7.57478688,5.41045719 7.52215539,5.5852488 C7.49077893,5.69335691 7.43511101,5.83783784 7.35413949,5.9954534 L6.6345051,7.48067694 L6.68106372,7.54129831 C6.98571907,7.98181359 7.34705448,8.4354635 7.77721568,8.92144481 C8.22761976,9.43066431 8.7529225,9.99040162 9.34907532,10.6006567 C9.94522814,11.1957565 10.5110166,11.7322556 11.0191129,12.1869159 C11.4998813,12.618338 11.9452247,12.9749937 12.3429973,13.2477898 L12.4472481,13.3175044 C12.945223,13.0851225 13.7650596,12.7011872 13.9047355,12.6254105 C14.11931,12.5132609 14.252913,12.4627431 14.372346,12.4253599 C14.5454227,12.3748421 14.6942078,12.3505936 14.8662723,12.3445314 C15.1658669,12.326345 15.4006843,12.459712 15.489753,12.5132609 C16.0413715,12.8658752 16.6415729,13.2558727 17.3055394,13.6933569 C17.9745666,14.1338722 18.708371,14.6360192 19.5089769,15.2008083 L19.6091791,15.2715332 C19.7407578,15.364486 19.839948,15.4968426 19.8905552,15.6494064 L19.9310409,15.7666077 C20.0170732,16.0232382 20.023146,16.3041172 19.9462231,16.5748926 C19.889543,16.76585 19.7984501,16.9416519 19.6739563,17.1043193 C19.467479,17.3801465 19.2458194,17.6610255 19.0170749,17.9398838 C18.7761846,18.2328871 18.5191,18.5157868 18.2468333,18.7865623 C17.9786151,19.0563274 17.7417734,19.2755746 17.5444053,19.4422834 C17.2721386,19.6726446 17.0565519,19.8161152 16.8490624,19.9040162 C16.7458237,19.9484718 16.5606014,20 16.4391441,20 Z" id="path-1"></path>
    </defs>
    <g id="Iconos/Nav/Phone" stroke="none" stroke-width="1" fill="none" fill-rule="evenodd">
        <mask id="mask-2" fill="white">
            <use xlink:href="#path-1"></use>
        </mask>
        <use id="Mask" fill="#535353" xlink:href="#path-1"></use>
        <g id="Color/Gris/2-Dark" mask="url(#mask-2)" fill="#535353">
            <rect id="Rectangle" x="0" y="0" width="20" height="20"></rect>
        </g>
    </g>
</svg>