<?xml version="1.0" encoding="UTF-8"?>
<svg width="20px" height="20px" viewBox="0 0 20 20" version="1.1" xmlns="http://www.w3.org/2000/svg" xmlns:xlink="http://www.w3.org/1999/xlink">
    <!-- Generator: Sketch 49.3 (51167) - http://www.bohemiancoding.com/sketch -->
    <title>Iconos/Nav/Prestamos</title>
    <desc>Created with Sketch.</desc>
    <defs>
        <path d="M1.4474,6.1983 C2.4164,6.9033 3.7934,7.3393 5.3474,7.3393 C6.9034,7.3393 8.2804,6.9033 9.2494,6.1983 C8.9934,7.3013 7.3204,8.1863 5.3474,8.1863 C3.3754,8.1863 1.7024,7.3013 1.4474,6.1983 M5.3474,1.3953 C7.4904,1.3953 9.3014,2.4363 9.3014,3.6693 C9.3014,4.9023 7.4904,5.9433 5.3474,5.9433 C3.2064,5.9433 1.3954,4.9023 1.3954,3.6693 C1.3954,2.4363 3.2064,1.3953 5.3474,1.3953 M10.6954,5.9123 L10.6954,3.6693 C10.6954,1.6113 8.3464,0.0003 5.3474,0.0003 C2.3484,0.0003 0.0004,1.6113 0.0004,3.6693 L0.0004,5.9123 C0.0004,7.9703 2.3484,9.5813 5.3474,9.5813 C8.3464,9.5813 10.6954,7.9703 10.6954,5.9123 M14.6534,18.6046 C12.6794,18.6046 11.0074,17.7186 10.7524,16.6166 C11.7204,17.3206 13.0974,17.7566 14.6534,17.7566 C16.2084,17.7566 17.5844,17.3206 18.5524,16.6166 C18.2984,17.7186 16.6254,18.6046 14.6534,18.6046 M14.6534,11.8126 C16.7954,11.8126 18.6044,12.8546 18.6044,14.0866 C18.6044,15.3196 16.7954,16.3616 14.6534,16.3616 C12.5104,16.3616 10.7004,15.3196 10.7004,14.0866 C10.7004,12.8546 12.5104,11.8126 14.6534,11.8126 M14.6534,10.4176 C17.6514,10.4176 20.0004,12.0296 20.0004,14.0866 L20.0004,16.3306 C20.0004,18.3876 17.6514,20.0006 14.6534,20.0006 C11.6544,20.0006 9.3044,18.3876 9.3044,16.3306 L9.3044,14.0866 C9.3044,12.0296 11.6544,10.4176 14.6534,10.4176 Z M13.0226,5.7481 L12.3586,4.6371 C12.1616,4.3041 12.2706,3.8731 12.6006,3.6751 L13.7136,3.0121 C13.9316,2.8811 14.2186,2.9521 14.3516,3.1731 C14.4836,3.3941 14.4106,3.6801 14.1896,3.8111 L13.7636,4.0651 C15.6876,4.3561 17.1706,6.0061 17.1706,8.0101 C17.1706,8.2671 16.9626,8.4751 16.7066,8.4751 C16.4496,8.4751 16.2416,8.2671 16.2416,8.0101 C16.2416,6.4801 15.1146,5.2181 13.6506,4.9841 L13.8216,5.2711 C13.9536,5.4911 13.8806,5.7771 13.6616,5.9091 C13.5856,5.9531 13.5036,5.9751 13.4216,5.9751 C13.2636,5.9751 13.1096,5.8941 13.0226,5.7481 Z M6.7687,13.9214 L7.4317,15.0324 C7.6277,15.3654 7.5187,15.7954 7.1907,15.9934 L6.0777,16.6574 C6.0027,16.7014 5.9207,16.7234 5.8387,16.7234 C5.6817,16.7234 5.5267,16.6424 5.4397,16.4964 C5.3077,16.2754 5.3807,15.9904 5.6017,15.8584 L6.0277,15.6044 C4.1037,15.3134 2.6207,13.6634 2.6207,11.6594 C2.6207,11.4024 2.8287,11.1944 3.0847,11.1944 C3.3417,11.1944 3.5497,11.4024 3.5497,11.6594 C3.5497,13.1894 4.6757,14.4504 6.1407,14.6854 L5.9687,14.3984 C5.8377,14.1774 5.9107,13.8924 6.1307,13.7604 C6.3487,13.6294 6.6357,13.7004 6.7687,13.9214 Z" id="path-1"></path>
    </defs>
    <g id="Iconos/Nav/Prestamos" stroke="none" stroke-width="1" fill="none" fill-rule="evenodd">
        <mask id="mask-2" fill="white">
            <use xlink:href="#path-1"></use>
        </mask>
        <use id="Mask" fill="#535353" xlink:href="#path-1"></use>
        <g id="Color/Gris/2-Dark" mask="url(#mask-2)" fill="#535353">
            <g transform="translate(-1.000000, -1.000000)" id="Rectangle">
                <rect x="0" y="0" width="22" height="22"></rect>
            </g>
        </g>
    </g>
</svg>