<?xml version="1.0" encoding="UTF-8"?>
<svg width="20px" height="20px" viewBox="0 0 20 20" version="1.1" xmlns="http://www.w3.org/2000/svg" xmlns:xlink="http://www.w3.org/1999/xlink">
    <!-- Generator: Sketch 49.3 (51167) - http://www.bohemiancoding.com/sketch -->
    <title>Iconos/Nav/Productos</title>
    <desc>Created with Sketch.</desc>
    <defs>
        <path d="M18.6045,8.3301 L16.2795,8.3301 L16.2795,8.0551 C16.2795,7.6691 15.9665,7.3571 15.5815,7.3571 C15.1965,7.3571 14.8835,7.6691 14.8835,8.0551 L14.8835,8.3301 L5.1165,8.3301 L5.1165,8.0551 C5.1165,7.6691 4.8035,7.3571 4.4185,7.3571 C4.0335,7.3571 3.7215,7.6691 3.7215,8.0551 L3.7215,8.3301 L1.3955,8.3301 L1.3955,5.5071 C1.3955,5.3791 1.5005,5.2741 1.6275,5.2741 L7.0085,5.2741 L12.9915,5.2741 L18.3725,5.2741 C18.5005,5.2741 18.6045,5.3791 18.6045,5.5071 L18.6045,8.3301 Z M18.6045,17.5121 C18.6045,17.6401 18.5005,17.7441 18.3725,17.7441 L1.6275,17.7441 C1.5005,17.7441 1.3955,17.6401 1.3955,17.5121 L1.3955,9.7261 L3.7215,9.7261 L3.7215,10.0001 C3.7215,10.3861 4.0335,10.6981 4.4185,10.6981 C4.8035,10.6981 5.1165,10.3861 5.1165,10.0001 L5.1165,9.7261 L14.8835,9.7261 L14.8835,10.0001 C14.8835,10.3861 15.1965,10.6981 15.5815,10.6981 C15.9665,10.6981 16.2795,10.3861 16.2795,10.0001 L16.2795,9.7261 L18.6045,9.7261 L18.6045,17.5121 Z M7.7065,3.8791 L12.2945,3.8791 L12.2945,2.3951 L7.7065,2.3951 L7.7065,3.8791 Z M18.3725,3.8791 L13.6885,3.8791 L13.6885,1.6981 C13.6885,1.3121 13.3765,1.0001 12.9915,1.0001 L7.0085,1.0001 C6.6235,1.0001 6.3115,1.3121 6.3115,1.6981 L6.3115,3.8791 L1.6275,3.8791 C0.7305,3.8791 0.0005,4.6091 0.0005,5.5071 L0.0005,17.5121 C0.0005,18.4091 0.7305,19.1401 1.6275,19.1401 L18.3725,19.1401 C19.2695,19.1401 20.0005,18.4091 20.0005,17.5121 L20.0005,5.5071 C20.0005,4.6091 19.2695,3.8791 18.3725,3.8791 Z" id="path-1"></path>
    </defs>
    <g id="Iconos/Nav/Productos" stroke="none" stroke-width="1" fill="none" fill-rule="evenodd">
        <mask id="mask-2" fill="white">
            <use xlink:href="#path-1"></use>
        </mask>
        <use id="Mask" fill="#535353" xlink:href="#path-1"></use>
        <g id="Color/Gris/2-Dark" mask="url(#mask-2)" fill="#535353">
            <g transform="translate(-1.000000, -1.000000)" id="Rectangle">
                <rect x="0" y="0" width="22" height="22"></rect>
            </g>
        </g>
    </g>
</svg>