<?xml version="1.0" encoding="UTF-8"?>
<svg width="20px" height="20px" viewBox="0 0 20 20" version="1.1" xmlns="http://www.w3.org/2000/svg" xmlns:xlink="http://www.w3.org/1999/xlink">
    <!-- Generator: Sketch 49.3 (51167) - http://www.bohemiancoding.com/sketch -->
    <title>Iconos/Nav/Programas</title>
    <desc>Created with Sketch.</desc>
    <defs>
        <path d="M17.0119,18.6169 L13.1989,18.6169 L13.1989,10.4219 L17.2439,10.4219 L17.2439,18.4649 C17.2439,18.5369 17.1459,18.6169 17.0119,18.6169 Z M10.6979,18.6169 L10.6979,17.7189 C10.6979,17.3369 10.3849,17.0269 9.9999,17.0269 C9.6149,17.0269 9.3019,17.3369 9.3019,17.7189 L9.3019,18.6169 L8.1969,18.6169 L8.1969,5.5969 L9.3019,5.5969 L9.3019,6.4749 C9.3019,6.8569 9.6149,7.1659 9.9999,7.1659 C10.3849,7.1659 10.6979,6.8569 10.6979,6.4749 L10.6979,5.5969 L11.8029,5.5969 L11.8029,18.6169 L10.6979,18.6169 Z M2.7549,18.4649 L2.7549,10.4219 L6.8009,10.4219 L6.8009,18.6169 L2.9879,18.6169 C2.8549,18.6169 2.7549,18.5369 2.7549,18.4649 Z M1.3959,5.7489 C1.3959,5.6779 1.4939,5.5969 1.6279,5.5969 L6.2539,5.5969 L6.8009,5.5969 L6.8009,9.0389 L1.6279,9.0389 C1.4939,9.0389 1.3959,8.9589 1.3959,8.8879 L1.3959,5.7489 Z M5.0039,3.4819 C4.7479,3.0239 4.7649,2.4859 5.0469,2.0429 C5.3139,1.6239 5.7539,1.3829 6.2539,1.3829 C6.7549,1.3829 7.1959,1.6239 7.4619,2.0429 L7.4629,2.0429 L8.8449,4.2149 L7.4989,4.2149 L6.2539,4.2149 C5.7259,4.2149 5.2589,3.9409 5.0039,3.4819 Z M12.7589,2.0429 C13.2909,1.2039 14.6399,1.2039 15.1739,2.0429 C15.4559,2.4859 15.4729,3.0239 15.2169,3.4819 C14.9619,3.9409 14.4949,4.2149 13.9659,4.2149 L12.5009,4.2149 L11.3759,4.2149 L12.7589,2.0429 Z M18.6049,5.7489 L18.6049,8.8879 C18.6049,8.9589 18.5059,9.0389 18.3719,9.0389 L13.1989,9.0389 L13.1989,5.5969 L13.9659,5.5969 L18.3719,5.5969 C18.5059,5.5969 18.6049,5.6779 18.6049,5.7489 Z M18.3719,4.2149 L16.3909,4.2149 C16.4059,4.1909 16.4259,4.1739 16.4389,4.1499 C16.9439,3.2429 16.9109,2.1799 16.3549,1.3049 C15.8339,0.4879 14.9409,-0.0001 13.9659,-0.0001 C12.9909,-0.0001 12.0989,0.4879 11.5779,1.3049 L10.1109,3.6109 L8.6419,1.3049 C8.1219,0.4879 7.2299,-0.0001 6.2539,-0.0001 C5.2799,-0.0001 4.3869,0.4879 3.8669,1.3049 C3.3099,2.1799 3.2779,3.2429 3.7819,4.1499 C3.7949,4.1739 3.8159,4.1909 3.8289,4.2149 L1.6279,4.2149 C0.7309,4.2149 -0.0001,4.9029 -0.0001,5.7489 L-0.0001,8.8879 C-0.0001,9.6469 0.5899,10.2749 1.3599,10.3969 L1.3599,18.4649 C1.3599,19.3109 2.0899,19.9999 2.9879,19.9999 L7.4989,19.9999 L12.5009,19.9999 L17.0119,19.9999 C17.9089,19.9999 18.6399,19.3109 18.6399,18.4649 L18.6399,10.3969 C19.4099,10.2749 19.9999,9.6469 19.9999,8.8879 L19.9999,5.7489 C19.9999,4.9029 19.2699,4.2149 18.3719,4.2149 Z" id="path-1"></path>
    </defs>
    <g id="Iconos/Nav/Programas" stroke="none" stroke-width="1" fill="none" fill-rule="evenodd">
        <mask id="mask-2" fill="white">
            <use xlink:href="#path-1"></use>
        </mask>
        <use id="Mask" fill="#535353" xlink:href="#path-1"></use>
        <g id="Color/Gris/2-Dark" mask="url(#mask-2)" fill="#535353">
            <g transform="translate(-1.000000, -1.000000)" id="Rectangle">
                <rect x="0" y="0" width="22" height="22"></rect>
            </g>
        </g>
    </g>
</svg>