<?xml version="1.0" encoding="UTF-8"?>
<svg width="20px" height="20px" viewBox="0 0 20 20" version="1.1" xmlns="http://www.w3.org/2000/svg" xmlns:xlink="http://www.w3.org/1999/xlink">
    <!-- Generator: Sketch 49.3 (51167) - http://www.bohemiancoding.com/sketch -->
    <title>Iconos/Nav/Salir</title>
    <desc>Created with Sketch.</desc>
    <defs>
        <path d="M10.0002,14.2741 C9.6142,14.2741 9.3022,14.5861 9.3022,14.9721 L9.3022,18.3721 C9.3022,18.5001 9.1972,18.6051 9.0692,18.6051 L1.6282,18.6051 C1.5002,18.6051 1.3962,18.5001 1.3962,18.3721 L1.3962,1.6281 C1.3962,1.5001 1.5002,1.3951 1.6282,1.3951 L9.0692,1.3951 C9.1972,1.3951 9.3022,1.5001 9.3022,1.6281 L9.3022,5.2221 C9.3022,5.6071 9.6142,5.9201 10.0002,5.9201 C10.3852,5.9201 10.6972,5.6071 10.6972,5.2221 L10.6972,1.6281 C10.6972,0.7301 9.9672,0.0001 9.0692,0.0001 L1.6282,0.0001 C0.7302,0.0001 0.0002,0.7301 0.0002,1.6281 L0.0002,18.3721 C0.0002,19.2701 0.7302,20.0001 1.6282,20.0001 L9.0692,20.0001 C9.9672,20.0001 10.6972,19.2701 10.6972,18.3721 L10.6972,14.9721 C10.6972,14.5861 10.3852,14.2741 10.0002,14.2741 M18.5451,10.1296 L14.7391,13.4206 C14.6711,13.4816 14.6021,13.4676 14.5561,13.4476 C14.5101,13.4266 14.4561,13.3816 14.4561,13.2906 L14.4561,12.0836 C14.4561,11.6986 14.1441,11.3866 13.7581,11.3866 L6.2191,11.3866 C6.1231,11.3866 6.0461,11.3096 6.0461,11.2146 L6.0461,8.7846 C6.0461,8.6906 6.1231,8.6136 6.2191,8.6136 L13.7581,8.6136 C14.1441,8.6136 14.4561,8.3006 14.4561,7.9156 L14.4561,6.7086 C14.4561,6.6176 14.5101,6.5736 14.5561,6.5526 C14.6021,6.5316 14.6711,6.5196 14.7401,6.5786 L18.5451,9.8706 C18.5951,9.9126 18.6051,9.9636 18.6051,10.0006 C18.6051,10.0356 18.5951,10.0866 18.5451,10.1296 M19.4571,8.8146 L15.6521,5.5236 C15.1841,5.1176 14.5411,5.0266 13.9751,5.2836 C13.4111,5.5416 13.0611,6.0876 13.0611,6.7086 L13.0611,7.2176 L6.2191,7.2176 C5.3551,7.2176 4.6511,7.9216 4.6511,8.7846 L4.6511,11.2146 C4.6511,12.0786 5.3551,12.7816 6.2191,12.7816 L13.0611,12.7816 L13.0611,13.2906 C13.0611,13.9126 13.4111,14.4586 13.9761,14.7166 C14.1891,14.8136 14.4111,14.8606 14.6321,14.8606 C14.9991,14.8606 15.3591,14.7296 15.6521,14.4766 L19.4571,11.1856 C19.8031,10.8876 20.0001,10.4556 20.0001,10.0006 C20.0001,9.5446 19.8031,9.1116 19.4571,8.8146" id="path-1"></path>
    </defs>
    <g id="Iconos/Nav/Salir" stroke="none" stroke-width="1" fill="none" fill-rule="evenodd">
        <mask id="mask-2" fill="white">
            <use xlink:href="#path-1"></use>
        </mask>
        <use id="Mask" fill="#535353" xlink:href="#path-1"></use>
        <g id="Color/Gris/2-Dark" mask="url(#mask-2)" fill="#535353">
            <g transform="translate(-1.000000, -1.000000)" id="Rectangle">
                <rect x="0" y="0" width="22" height="22"></rect>
            </g>
        </g>
    </g>
</svg>