<?xml version="1.0" encoding="UTF-8"?>
<svg width="20px" height="20px" viewBox="0 0 20 20" version="1.1" xmlns="http://www.w3.org/2000/svg" xmlns:xlink="http://www.w3.org/1999/xlink">
    <!-- Generator: Sketch 49.3 (51167) - http://www.bohemiancoding.com/sketch -->
    <title>Iconos/Nav/Tarjetas</title>
    <desc>Created with Sketch.</desc>
    <defs>
        <path d="M6.1362,8.9366 L3.3102,8.9366 C2.9252,8.9366 2.6122,9.2486 2.6122,9.6346 C2.6122,10.0196 2.9252,10.3326 3.3102,10.3326 L6.1362,10.3326 C6.5212,10.3326 6.8342,10.0196 6.8342,9.6346 C6.8342,9.2486 6.5212,8.9366 6.1362,8.9366 M18.6044,16.5181 C18.6044,16.7161 18.4754,16.8841 18.3234,16.8841 L4.6144,16.8841 C4.4614,16.8841 4.3334,16.7161 4.3334,16.5181 L4.3334,15.0891 L15.4344,15.0891 C16.3324,15.0891 17.0624,14.3591 17.0624,13.4611 L17.0624,6.5841 L18.3234,6.5841 C18.4754,6.5841 18.6044,6.7521 18.6044,6.9501 L18.6044,16.5181 Z M1.3954,13.4611 L1.3954,7.4711 L15.6674,7.4711 L15.6674,13.4611 C15.6674,13.5901 15.5624,13.6941 15.4344,13.6941 L1.6274,13.6941 C1.5004,13.6941 1.3954,13.5901 1.3954,13.4611 Z M1.6274,3.3951 L15.4344,3.3951 C15.5624,3.3951 15.6674,3.5001 15.6674,3.6281 L15.6674,6.0751 L1.3954,6.0751 L1.3954,3.6281 C1.3954,3.5001 1.5004,3.3951 1.6274,3.3951 Z M18.3234,5.1891 L17.0624,5.1891 L17.0624,3.6281 C17.0624,2.7301 16.3324,2.0001 15.4344,2.0001 L1.6274,2.0001 C0.7304,2.0001 0.0004,2.7301 0.0004,3.6281 L0.0004,13.4611 C0.0004,14.3591 0.7304,15.0891 1.6274,15.0891 L2.9374,15.0891 L2.9374,16.5181 C2.9374,17.4891 3.6894,18.2791 4.6144,18.2791 L18.3234,18.2791 C19.2484,18.2791 20.0004,17.4891 20.0004,16.5181 L20.0004,6.9501 C20.0004,5.9791 19.2484,5.1891 18.3234,5.1891 Z" id="path-1"></path>
    </defs>
    <g id="Iconos/Nav/Tarjetas" stroke="none" stroke-width="1" fill="none" fill-rule="evenodd">
        <mask id="mask-2" fill="white">
            <use xlink:href="#path-1"></use>
        </mask>
        <use id="Mask" fill="#535353" xlink:href="#path-1"></use>
        <g id="Color/Gris/2-Dark" mask="url(#mask-2)" fill="#535353">
            <g transform="translate(-1.000000, -1.000000)" id="Rectangle">
                <rect x="0" y="0" width="22" height="22"></rect>
            </g>
        </g>
    </g>
</svg>