<?xml version="1.0" encoding="UTF-8"?>
<svg width="20px" height="20px" viewBox="0 0 20 20" version="1.1" xmlns="http://www.w3.org/2000/svg" xmlns:xlink="http://www.w3.org/1999/xlink">
    <!-- Generator: Sketch 49.3 (51167) - http://www.bohemiancoding.com/sketch -->
    <title>Iconos/Nav/Transferencias</title>
    <desc>Created with Sketch.</desc>
    <defs>
        <path d="M16.6407,15.9797 C16.6407,16.0837 16.5557,16.1687 16.4517,16.1687 L8.8817,16.1687 C8.4567,16.1687 8.1127,16.5137 8.1127,16.9377 L8.1127,18.2697 C8.1127,18.3697 8.0527,18.4187 8.0017,18.4417 C7.9507,18.4637 7.8737,18.4797 7.7997,18.4127 L3.6037,14.7837 C3.5497,14.7377 3.5377,14.6807 3.5377,14.6407 C3.5377,14.6017 3.5497,14.5437 3.6037,14.4977 L7.7997,10.8697 C7.8407,10.8337 7.8817,10.8207 7.9187,10.8207 C7.9507,10.8207 7.9787,10.8297 8.0017,10.8397 C8.0527,10.8627 8.1127,10.9117 8.1127,11.0127 L8.1127,12.3427 C8.1127,12.7677 8.4567,13.1117 8.8817,13.1117 L16.4517,13.1117 C16.5557,13.1117 16.6407,13.1977 16.6407,13.3017 L16.6407,15.9797 Z M16.4517,11.5737 L9.6507,11.5737 L9.6507,11.0127 C9.6507,10.3277 9.2637,9.7257 8.6417,9.4417 C8.0177,9.1567 7.3107,9.2577 6.7927,9.7057 L2.5977,13.3337 C2.2177,13.6617 1.9997,14.1387 1.9997,14.6407 C1.9997,15.1427 2.2177,15.6187 2.5977,15.9477 L6.7927,19.5767 C7.1167,19.8557 7.5137,20.0007 7.9177,20.0007 C8.1617,20.0007 8.4077,19.9477 8.6417,19.8397 C9.2637,19.5557 9.6507,18.9537 9.6507,18.2697 L9.6507,17.7077 L16.4517,17.7077 C17.4037,17.7077 18.1787,16.9327 18.1787,15.9797 L18.1787,13.3017 C18.1787,12.3487 17.4037,11.5737 16.4517,11.5737 Z M3.5382,4.0193 C3.5382,3.9153 3.6232,3.8303 3.7272,3.8303 L11.2972,3.8303 C11.7222,3.8303 12.0662,3.4853 12.0662,3.0613 L12.0662,1.7303 C12.0662,1.6293 12.1262,1.5813 12.1772,1.5583 C12.2282,1.5373 12.3032,1.5213 12.3792,1.5873 L16.5742,5.2143 C16.6292,5.2623 16.6412,5.3193 16.6412,5.3593 C16.6402,5.3983 16.6292,5.4553 16.5752,5.5013 L12.3792,9.1303 C12.3052,9.1963 12.2262,9.1833 12.1772,9.1593 C12.1262,9.1363 12.0662,9.0873 12.0662,8.9873 L12.0662,7.6563 C12.0662,7.2313 11.7222,6.8873 11.2972,6.8873 L3.7272,6.8873 C3.6232,6.8873 3.5382,6.8023 3.5382,6.6983 L3.5382,4.0193 Z M3.7272,8.4253 L10.5282,8.4253 L10.5282,8.9873 C10.5282,9.6713 10.9142,10.2733 11.5372,10.5583 C11.7702,10.6653 12.0172,10.7173 12.2612,10.7173 C12.6652,10.7173 13.0622,10.5733 13.3862,10.2933 L17.5812,6.6653 C17.9602,6.3373 18.1782,5.8613 18.1792,5.3593 C18.1792,4.8573 17.9612,4.3803 17.5812,4.0513 L13.3862,0.4233 C12.8682,-0.0237 12.1602,-0.1247 11.5372,0.1583 C10.9142,0.4433 10.5282,1.0453 10.5282,1.7303 L10.5282,2.2913 L3.7272,2.2913 C2.7752,2.2913 2.0002,3.0673 2.0002,4.0193 L2.0002,6.6983 C2.0002,7.6503 2.7752,8.4253 3.7272,8.4253 Z" id="path-1"></path>
    </defs>
    <g id="Iconos/Nav/Transferencias" stroke="none" stroke-width="1" fill="none" fill-rule="evenodd">
        <mask id="mask-2" fill="white">
            <use xlink:href="#path-1"></use>
        </mask>
        <use id="Mask" fill="#535353" xlink:href="#path-1"></use>
        <g id="Color/Gris/2-Dark" mask="url(#mask-2)" fill="#535353">
            <g transform="translate(-1.000000, -1.000000)" id="Rectangle">
                <rect x="0" y="0" width="22" height="22"></rect>
            </g>
        </g>
    </g>
</svg>